<?xml version="1.0" encoding="utf-8"?>
<!-- Generator: Adobe Illustrator 24.0.2, SVG Export Plug-In . SVG Version: 6.00 Build 0)  -->
<svg version="1.1" id="Capa_1" xmlns="http://www.w3.org/2000/svg" xmlns:xlink="http://www.w3.org/1999/xlink" x="0px" y="0px"
	 viewBox="0 0 720 720" style="enable-background:new 0 0 720 720;" xml:space="preserve">
<style type="text/css">
	.st0{fill:#FFFFFF;}
</style>
<path class="st0" d="M55.3,667.32c15.56-46.45,29.25-90.42,45.22-133.55c6.6-17.82,5.4-31.55-3.12-48.86
	C26.44,340.64,79.64,170.35,219.21,91.03c176.66-100.4,404.79,6.17,440.48,205.77c29.42,164.54-73.45,316.8-237.39,349.65
	c-66.89,13.41-131.46,3.93-192.47-27.05c-6.71-3.41-12.26-3.74-19.33-1.43c-46.69,15.25-93.52,30.03-140.31,44.95
	C66.07,664.22,61.91,665.37,55.3,667.32z M132.38,591.25c6.1-1.75,9.69-2.68,13.21-3.81c25.2-8.05,50.33-16.37,75.66-23.98
	c3.91-1.17,9.57-0.5,13.07,1.58c53.85,32.05,111.4,43.71,173.48,33.57C541.55,576.78,635.73,444.32,611.94,311
	C587.02,171.41,455.93,81.03,316.97,107.64C143.77,140.82,59.23,343.48,157.61,490.16c4.31,6.43,5.16,11.48,2.57,18.75
	C150.77,535.41,142.12,562.18,132.38,591.25z"/>
<path class="st0" d="M207.67,288.75c0.42-29.08,10.3-51.03,29.79-68.58c8.89-8,32.76-11.57,42.92-5.52
	c3.46,2.06,6.07,6.64,7.62,10.62c7.86,20.17,15.56,40.43,22.52,60.92c1.33,3.91,0.49,9.93-1.77,13.41
	c-5.38,8.3-11.72,16.12-18.59,23.25c-5.77,5.99-6.36,11.38-2.47,18.42c23.28,42.08,56.55,73.21,100.51,92.91
	c7.07,3.17,12.48,1.9,17.39-3.86c7.37-8.64,15.32-16.82,22.27-25.78c5.07-6.53,10.53-8.57,17.81-4.79
	c20.44,10.61,41.03,20.99,61.04,32.38c3.32,1.89,5.82,8.52,5.62,12.8c-1.61,33.24-19.14,52.07-58.54,61.67
	c-25.27,6.16-47.11-5.21-69.63-13.28c-63.57-22.79-108.24-67.64-144.08-123c-14.87-22.98-28.5-46.33-31.71-74.21
	C207.97,292.71,207.72,289.28,207.67,288.75z"/>
</svg>
