<?xml version="1.0" encoding="utf-8"?>
<!-- Generator: Adobe Illustrator 24.0.2, SVG Export Plug-In . SVG Version: 6.00 Build 0)  -->
<svg version="1.1" id="Capa_1" xmlns="http://www.w3.org/2000/svg" xmlns:xlink="http://www.w3.org/1999/xlink" x="0px" y="0px"
	 viewBox="0 0 686 209" style="enable-background:new 0 0 686 209;" xml:space="preserve">
<style type="text/css">
	.st0{fill:#262626;}
	.st1{fill:#F3AE81;}
	.st2{fill:#676666;}
	.st3{fill:#AA1819;}
	.st4{fill:#9B9B9B;}
	.st5{fill:#DF2413;}
	.st6{fill:#434343;}
	.st7{fill:#F1A170;}
	.st8{fill:#686767;}
	.st9{fill:#F4B5A3;}
	.st10{fill:#F5C2B3;}
	.st11{fill:#0B0806;}
	.st12{fill:#FFFFFF;}
	.st13{fill:#FBB03B;}
	.st14{fill:none;stroke:#FBB03B;stroke-width:4;stroke-miterlimit:10;}
</style>
<title>LOGO horizaontal</title>
<path class="st0" d="M58.7,76.5C58,92.9,62,108,71.7,121.4c10.4,14.5,24,24.6,41.4,29.2c7.1,1.8,14.4,2.6,21.8,2.2
	c4.7-0.1,9.3-0.7,13.9-1.7c0.8-0.2,1.6,0.1,1.9,0.9c6.1,9.4,12.3,18.8,18.4,28.2c0.4,0.6,0.6,1.2,0.7,1.9c0,1,0.2,2,0.2,3.1
	c0.1,6.4,0.2,12.8,0.4,19.2c0,1.1-0.5,1.3-1.2,1.5c-4.3,0.9-8.7,1.6-13,2.6c-1,0.2-1.2-0.1-1.5-0.8c-3.2-5.9-6.5-11.7-9.6-17.6
	c-0.3-0.9-1.3-1.5-2.2-1.4c-3.9,0.1-7.8,0.1-11.7,0c-0.9-0.1-1.7,0.5-2,1.3c-2.7,6.3-5.4,12.6-8.2,18.9h-3.6
	c-1.7-0.7-3.5-0.4-5.2-0.6c-2.3-0.3-4.7-0.4-7-0.4c-0.9,0-1.1-0.3-1.2-1.2c-0.4-4.8-1-9.6-1.5-14.5c-0.2-2.3-0.5-4.5-0.7-6.8
	c0.1-0.6-0.4-1.2-1-1.4c-4.3-1.3-8.6-2.6-12.8-3.9c-0.7-0.3-1.5,0-2,0.6c-4.8,4.7-9.6,9.4-14.4,14.1c-0.8,0.8-1.3,0.9-2.3,0.3
	c-3.7-2.5-7.4-5-11.2-7.3c-0.8-0.3-1.1-1.2-0.8-2c0,0,0,0,0-0.1c1.9-6.6,3.6-13.3,5.4-19.9c0.2-0.6,0.2-1-0.3-1.5
	c-3-2.6-6-5.2-8.9-7.9c-0.7-0.6-1.4-0.4-2.1-0.1c-6.2,2.3-12.4,4.4-18.5,6.8c-0.8,0.5-1.8,0.2-2.3-0.6c0,0,0-0.1-0.1-0.1
	c-2.6-3.5-5.3-7-8-10.4c-0.6-0.5-0.6-1.4-0.1-1.9c0,0,0,0,0.1-0.1c4.2-5.3,8.4-10.7,12.6-16.1c0.4-0.4,0.4-1,0.1-1.5
	c-2.2-4.2-4.4-8.4-6.5-12.7c-0.3-0.6-1-1-1.6-0.9c-6.6,0-13.1,0-19.7,0.1c-1.1,0-1.5-0.4-1.8-1.3c-1.3-4.8-2.6-9.7-3.9-14.5
	c-0.3-0.7,0-1.5,0.7-1.8c0.1,0,0.1,0,0.2-0.1c5.8-2.9,11.5-5.8,17.2-8.8c0.9-0.3,1.4-1.2,1.3-2.1c-0.1-4.2,0-8.4,0-12.5
	c0.1-0.8-0.4-1.6-1.2-1.7l0,0c-6.2-2-12.3-4.1-18.5-6.2c-0.8-0.1-1.3-0.9-1.2-1.7v-0.1c0.4-5.2,0.7-10.4,1-15.6
	c0-0.6,0.2-0.8,0.8-0.8c3.2-0.3,6.4-0.6,9.7-0.9c4-0.4,8.1-0.7,12.1-1c1,0,1.9-0.8,2.1-1.8c1.1-3.8,2.4-7.6,3.7-11.4
	c0.3-0.7,0.1-1.6-0.5-2.1c-4.8-5.1-9.4-10.2-14.1-15.3c-0.7-0.8-0.6-1.3-0.1-2c2.7-4.2,5.3-8.4,7.9-12.7c0.3-0.8,1.2-1.2,2-0.9
	c0.1,0,0.1,0,0.1,0.1c6.7,2,13.3,3.9,19.9,5.9c0.7,0.3,1.6,0.1,2.1-0.6c2.8-3.1,5.7-6.2,8.6-9.3l14.2,22.9c-0.3,0.4-0.7,0.9-1,1.3
	c-2.1,3-3.6,6.3-2.7,10.1c0.7,2.3,1.8,4.4,3.3,6.2c-1.3,2-2.5,4.1-3.4,6.4c-0.6,0.1-1.2,0.2-1.7,0.4c-5.3,2-9.4,5.2-11,11
	c-0.1,0.1-0.2,0.2-0.2,0.2c0.1,0.2,0.2,0.1,0.3-0.1l8.4-1c-1.4,4.7-2.3,9.5-2.7,14.3l-4.1,0.4C55.7,73.9,57.1,75.4,58.7,76.5z"/>
<path class="st1" d="M117.2,67.1c-0.1,0.2-0.3,0.4-0.2,0.6c1,2,0.7,4,0,6l1,0.3c0.2,1.3,1.9,1.2,2.3,2.3c0,0.4,0.2,0.7,0.5,0.3
	c0.4-0.5,0.7-1.1,1-1.7c1-2.4,3.4-2.7,5.1-0.7c0.6,0.7,1.1,1.3,1.6,2c1.4,1.7,3.5,2.7,5.8,2.7c0.1,1.2,0.7,2.2,1.5,3
	c1,0.8,1.7,1.9,2.2,3.1c1,3.9,1.7,7.8,0.4,11.8c-0.5,1.1-0.7,2.3-0.8,3.5c1.3-1.1,2.2-2.6,2.8-4.2c1.6-2.3,1.7-4.9,1.9-7.5
	c0-0.5,0-1.1,0-1.6s-0.3-1.4,0.5-1.5s2-0.7,2.7,0.4c2.4,3.5,5.6,4.1,9.4,2.9c0.2,0,0.3,0,0.5,0c-2.1,4.1-3.6,8.6-4.4,13.1
	c-0.6,3.3-2.7,5.2-5.7,6.3c-0.6,0.2-1.2,0.5-1.8,0.8c1.7,1.1,1.8,2.5,0.4,3.9c-0.4,0.4-1,0.5-1,1.2h-0.7c-0.1-0.2-0.2-0.2-0.3,0
	c-7.2,0-14.4,0-21.6,0c-0.7,0-1.2,0.1-0.9-1c0.3-1.9,0.3-3.9-0.1-5.9c3,1.4,5.8,2.4,9,1.8c-2.7-0.2-5.4-0.9-7.8-2.1
	c-0.9-0.4-1.6-1.1-2.2-1.9c-4.8-7.5-9.7-15-14.6-22.4c-1.3-2-0.8-4.1-0.4-6.1c1.2-5.7,3.6-11,5.4-16.5c1.4-4.2,3.7-6.3,8.2-5.9
	c2.9,0.2,5.8,0.8,8.6,1.8c0.1,0.4,0.1,0.7,0,1.1c-1,2.9,0.2,4.1,2.9,4.9c0.9,0.3,1.8,0.4,2.7,0.4c0,0.5-0.5,0.7-0.9,0.9
	c-2.7,1.2-5.6,2-8.5,2.3c-1.4,0.3-2.9,0.4-4.3,0.4c-0.4-0.1-0.8,0.1-0.9,0.5l0,0 M112.1,86.6L112.1,86.6L112.1,86.6
	c0,0.4,0.2,0.7,0.5,1c1.7,2.1,3.7,4.1,4.4,6.7c0.8,2.8,2.2,5.4,4.1,7.6c2.4,3.2,5.7,3.8,9.7,4.3c-2.7-2.3-5.1-4.8-7.4-7.6
	c-1.3-2-2.5-4.1-3.6-6.2C118.2,89.6,115.4,87.4,112.1,86.6L112.1,86.6z"/>
<path class="st2" d="M151.5,146.1c-11.6,0-23.1,0-34.6,0.1c-1.1,0-1.2-0.5-1.2-1.4c0-6.9,0-13.9,0-20.8c0-0.7,0.4-1.7-1-1.7
	c-0.4,0-0.3-0.5-0.3-0.8c0-1.6,0-3.1,0-4.7c0-0.8,0.3-1,1.1-1c12.8,0,25.6,0.1,38.4,0.1c0,1.7,0,3.4,0,5c0,0.7-0.2,1.2-1,1.1
	c-1.2-0.1-1.3,0.5-1.3,1.5C151.5,131,151.5,138.6,151.5,146.1z"/>
<path class="st3" d="M116,51.5c0.1,1.4-0.9,1.1-1.8,1.2c-2.8,0.4-5.3,1.3-6.5,4.2c-5-3.3-10.3-6.1-15.8-8.6c-3.3-1.4-6.9-2.2-10-4.2
	c-4.2-2.7-8.4-5.4-10.9-9.9c-1.5-2.4-1.3-5.4,0.5-7.6c1.6-2.3,4.4-3.4,7.1-2.8c4.1,0.8,7.5,2.9,10.9,5.2c2.9,2,5.4,4.4,7.6,7.2
	c3.2,3.5,6.7,6.8,10.6,9.6C110.4,48,112.9,50.2,116,51.5z"/>
<path class="st4" d="M58.7,76.5c-1.6-1.2-2.9-2.8-3.8-4.5l4.1-0.4c0.7-0.2,1.5-0.3,2.2-0.3c2.2-0.2,4.5-0.2,6.5-0.9
	c2.7-1,4.4-3.1,4.1-7.3c-0.2-2.9-2.2-5.3-4.9-6.2c-1.8-0.5-3.5,0.3-5.2,0.4l-8.4,1L53,58.2c1.5-5.8,5.6-9,11-11
	c0.6-0.2,1.1-0.3,1.7-0.4c9-1.6,17.7,4.4,19.3,13.4s-4.4,17.7-13.4,19.3C67.1,80.3,62.4,79.2,58.7,76.5L58.7,76.5z"/>
<path class="st4" d="M221.3,87.9c-2,6-6,9.8-11.9,11.4c-9.2,2.4-19-4-20.3-13.5c-1.3-9.3,3.9-16.9,13-18.8
	c6.3-1.6,12.8,0.9,16.5,6.2c0.3,0.3,0.7,0.7,0.4,1.1s-0.8,0.3-1.2,0.3c-3.7,0.4-7.4,0.6-11.1,1.4c-3,0.7-5.2,3.9-4.3,8
	c0.8,3.6,3.6,6.5,8.4,5.4C214.3,88.7,217.8,88.2,221.3,87.9z"/>
<path class="st5" d="M116,51.5c-3.1-1.4-5.6-3.6-8.3-5.6c-3.8-2.8-7.4-6-10.6-9.6c-2.2-2.7-4.8-5.1-7.6-7.2
	c-3.4-2.3-6.8-4.4-10.9-5.1c-2.7-0.6-5.5,0.5-7.1,2.8c-1.8,2.1-2,5.2-0.5,7.6c2.6,4.5,6.7,7.2,10.9,9.9c3.1,2,6.7,2.7,10,4.2
	c5.5,2.4,10.8,5.3,15.8,8.6c-0.2,1-0.5,2-0.7,3c-3.3-1.6-6.5-3.4-9.9-4.8C94,54,90.7,52.9,87.4,52c-7.3-1.8-13.3-5.9-18.4-11.4
	c-1.5-1.8-2.6-3.9-3.3-6.2c-1-3.8,0.5-7.1,2.7-10.1c0.3-0.4,0.6-0.9,1-1.3c2.6-2.6,5.6-4.5,9.6-3.9c4.3,0.7,8.4,2.4,12.1,4.9
	c4.4,3,8.2,6.8,11.3,11.2c3.6,4.8,8.1,8.7,12.7,12.5C117.2,49.3,117.2,49.2,116,51.5z"/>
<path class="st1" d="M128.4,73.3c-0.1-0.4-0.3-0.8-0.3-1.3c-0.2-1.5,0-2.6,1.8-3.1c2.5-0.7,4.8-2,6.7-3.8c2-2,2.1-4.4,1.7-6.9
	c-0.2-0.9-0.9-1.7-1.8-1.9c-2.1-0.8-4.4-1.7-6.6-1.5c-3.5,0.2-6.5-1.4-9.8-1.9c-0.2,0-0.4-0.1-0.6-0.1c-2.2-0.3-2.3-0.3-1.3-2.3
	c1.9-3.8,7.3-5.9,11.3-4.5c2.8,1,3.8,3.9,3.6,6.9c0,0.3-0.1,0.7-0.2,1c5.8-5.7,7.5-6,10.7-2.2c0.2,3.6-0.3,7.2-1.5,10.7
	c-1.4,3.4-2.9,6.6-4.3,9.9c-0.9,2-3.9,3.6-6.3,2.4C130.5,74.3,129.7,73.2,128.4,73.3z"/>
<path class="st4" d="M188.4,90.7c-4.1-3.3-9.1-3.5-14-4.4c-4.1-0.7-8.3-1.4-12.4-2c-0.3-0.1-0.5-0.2-0.8-0.4l2.2-2.5
	c2.2,0.4,4.3,1.1,6.5,1c1.8-0.1,3.4-1.4,3.9-3.1c0.4-1.8-0.5-3.6-2.1-4.5c-0.8-0.5-1.8-0.8-2.7-0.9c-1.2-0.1-2.3-0.4-3.5-0.6l-0.4-2
	l0.1-0.1c5.4,0.8,10.8,1.5,16.1,2.6c2.9,0.5,5.8,0.3,8.6-0.6l0.2,0.3c-1.2,2.3-2.5,4.4-2.8,7.1c-0.3,2.9,0,5.8,1,8.5
	c0.1,0.5,0.3,0.9,0.4,1.4L188.4,90.7z"/>
<path class="st4" d="M85.3,55.4c3.7,2.9,8.3,3.9,12.8,4.5c2.3,0.3,4.7,0.8,7,1.1c1.1,0.2,1.6,0.6,1,1.7c-0.2,0.4-0.4,0.7-0.5,1.1
	c-1.4-0.8-3-1-4.5-0.6c-2.1,0.3-3.6,2.3-3.3,4.5c0.1,0.6,0.4,1.3,0.8,1.8c1.1,1.2,2.6,2,4.2,2.2c-0.4,2.6-0.4,2.4-3,2
	c-3.7-0.6-7.3-1.7-11.1-1.5c-1.7,0.1-3.2,0.9-4.8,1l0,0c2.1-3.1,3.2-6.8,3-10.6C86.4,60.2,85.9,57.8,85.3,55.4z"/>
<path class="st6" d="M151.5,146.1c0-7.5,0-15.1,0-22.6c0-1,0.1-1.6,1.3-1.5c0.8,0.1,1-0.3,1-1.1c0-1.7,0-3.4,0-5
	c1.8,0,4.2-0.7,5.2,0.2s0.3,3.5,0.4,5.3c0,0.3,0,0.6-0.2,0.9c-1.8,0-1,1.4-1,2.1c-0.1,6.8-0.1,13.5,0,20.3c0,1.1-0.2,1.5-1.4,1.4
	C154.9,146.1,153.2,146.1,151.5,146.1z"/>
<path class="st7" d="M143,113.9c0-0.7,0.6-0.8,1-1.2c1.4-1.4,1.3-2.8-0.4-3.9c0.5-0.4,1.1-0.6,1.7-0.8c3-1.1,5.1-3,5.7-6.3
	c0.8-4.6,2.3-9,4.4-13.1c1.1-1,2.1-0.5,3.2,0.2c3,1.9,3,1.8,1.5,5c-1.7,3.3-2.9,6.7-3.5,10.3c-0.4,3.2-1.5,4-4.7,4.6
	c-0.7,0.1-1.4,0.3-2.3,0.5c1.5,0.4,3,0.3,4.4-0.3c1-0.3,1.3,0.1,1.3,0.8c0.1,1.2,0.1,2.4,0,3.6c0,0.8-0.7,0.7-1.2,0.7
	C150.4,114,146.7,113.9,143,113.9z"/>
<path class="st1" d="M138.7,78.5c2-4.4,4.4-8.7,6-13.3c0.4-1.4,1-2.8,1.6-4.2c0.8-1.6,1.8-3.4,4-3.2c2.2,0.1,4.1,1.5,5,3.5
	c-0.1,0.2-0.2,0.5-0.3,0.7c-2.2,5.7-4.6,11.4-8.3,16.4c-1.2,2.1-3.9,2.8-6,1.6c-0.2-0.1-0.3-0.2-0.5-0.3
	C139.8,79.2,139.3,78.8,138.7,78.5z"/>
<path class="st8" d="M201.3,112l1.3,1.3c0.2,0.6,1.3,0.8,0.9,1.5c-0.5,0.9-1.1,1.7-1.8,2.5c-0.1,0.1-0.3,0-0.4,0
	c-1.8-1-3.9-1.3-5.2-3c-2.7-3.5-6.2-6.3-10.1-8.2c-8-4.2-14.9-9.9-22.5-14.7c-0.2-0.1-0.5-0.3-0.5-0.4c0.6-2.3-1.6-2.1-2.6-2.9
	c-0.8-0.7-1.6-1.1-0.8-2.3c0.5-0.8,0.8-0.7,1.5-0.2c5.3,3.6,10.6,7.2,15.9,10.8c2.9,1.8,5.8,3.8,8.5,5.9c2.2,1.9,4.5,3.7,6.9,5.4
	c1.8,1.1,3.8,2,5.8,2.7C199.3,110.8,200.3,111.3,201.3,112z"/>
<path class="st1" d="M147.9,83.9c2.8-4.7,5.4-9.4,8.1-14.1c1.3-2.3,3.6-3.5,5.7-1.5c-0.1,0.7-0.2,1.5-0.4,2.2
	c-0.9,5-3.3,9.5-6.8,13.2C152.3,86,149.5,86,147.9,83.9z"/>
<path class="st7" d="M147.9,83.9c1.6,2,4.4,2,6.6-0.2c3.5-3.7,5.8-8.2,6.8-13.2c0.1-0.7,0.2-1.5,0.4-2.2c2.6,1.5,3.2,6.1,2,8.4
	c-2,3.7-4.6,7.2-7.7,10.1c-1.9,1.9-5,1.5-7.8-0.5C146.8,85.5,146.6,84.8,147.9,83.9z"/>
<path class="st7" d="M138.7,78.5l1.6,1.1c1.9,1.5,4.6,1.2,6.1-0.7c0.1-0.2,0.2-0.3,0.3-0.5c3.6-5,6-10.7,8.3-16.4
	c0.1-0.2,0.2-0.5,0.3-0.7c1.3,2,0.5,4.1,0,6.1c-1,3.5-3.1,6.5-4.8,9.6c-1,1.7-2.2,3.3-3.2,5c-0.9,1.6-2.6,2.5-4.3,2.3
	c-1.9-0.1-3.7-1.3-4.6-3C137.9,80.3,138,79.2,138.7,78.5z"/>
<path class="st2" d="M165.5,73.3c1.1,0.2,2.3,0.5,3.5,0.6c1,0.1,1.9,0.4,2.7,0.9c1.6,0.9,2.5,2.7,2.1,4.5c-0.5,1.7-2.1,3-3.9,3.1
	c-2.3,0.1-4.4-0.6-6.5-1c0.4-1.2,0.9-2.3,1.5-3.3C165.8,76.6,166,74.9,165.5,73.3z"/>
<path class="st7" d="M128.4,73.3c1.3,0,2.1,1,3.1,1.5c2.4,1.1,5.4-0.4,6.3-2.4c1.5-3.3,3-6.6,4.3-9.9c1.2-3.4,1.7-7,1.5-10.7
	c2,2.4,1.7,5.2,1.1,8c-1.1,5.4-3.7,10.2-5.9,15.1c-0.6,1.5-2.1,2.5-3.7,2.4c-2.5-0.1-4.9-0.4-6.3-2.8
	C128.7,74.1,128.5,73.7,128.4,73.3z"/>
<path class="st2" d="M102.7,71.8c-1.6-0.3-3.1-1-4.2-2.2c-1.3-1.7-1-4.2,0.8-5.5c0.5-0.4,1.2-0.7,1.8-0.8c1.5-0.4,3.2-0.2,4.5,0.6
	C104.6,66.5,103.6,69.1,102.7,71.8z"/>
<path class="st9" d="M136.8,57.9c0,2.6-2.4,4-5.5,4.3c-0.9,0-1.8-0.1-2.7-0.4c-2.7-0.9-3.9-2-2.9-4.9c0.1-0.4,0.1-0.7,0-1.1l2,0.3
	c-0.5,1.3-0.6,2.9,0.9,3c2.7,0.3,5.6,1,8-1.2C136.7,57.8,136.7,57.8,136.8,57.9z"/>
<path class="st7" d="M140.4,96c-0.6,1.6-1.5,3.1-2.8,4.2c0.1-1.2,0.3-2.4,0.8-3.5c1.4-4,0.7-7.9-0.4-11.8c-0.5-1.2-1.2-2.3-2.3-3.1
	c-0.9-0.8-1.4-1.8-1.6-3c1.1-0.3,1.7,0.1,1.9,1.2c0.3,1.4,1.1,2.6,2.3,3.4c1.7,1.1,1.9,2.7,1.9,4.3C140.4,90.5,140.4,93.3,140.4,96z
	"/>
<path class="st10" d="M136.6,57.8c-2.4,2.2-5.3,1.5-8,1.2c-1.5-0.2-1.4-1.8-0.9-3.1C130.8,56,133.8,56.2,136.6,57.8z"/>
<path class="st7" d="M120.2,76.3c-0.4-1.1-2.1-1-2.3-2.3c1.1,0.1,2.1-0.5,3.1-0.7C121.3,74.3,121,75.5,120.2,76.3z"/>
<path class="st4" d="M188.6,90.5c0.2,0.1,0.3,0.4,0.1,0.5s-0.3-0.2-0.4-0.3L188.6,90.5z"/>
<path class="st4" d="M189.8,73.2c0.1-0.2,0.4-0.3,0.5-0.2s-0.1,0.3-0.3,0.4L189.8,73.2z"/>
<path class="st4" d="M83.7,73.3l-0.1,0.2C83.3,73.3,83.6,73.3,83.7,73.3z"/>
<path class="st4" d="M165.1,71.4c-0.1-0.1-0.2-0.2-0.2-0.2c0.1-0.2,0.2-0.1,0.3,0.1L165.1,71.4z"/>
<path class="st7" d="M142,113.9c0.1-0.2,0.2-0.2,0.3,0H142z"/>
<path class="st4" d="M313.6,185.6c-0.1,0.1-0.1,0.2-0.2,0l0.1-0.1L313.6,185.6z"/>
<path class="st7" d="M112.1,86.6c3.3,0.8,6.1,2.9,7.7,5.9c1.1,2.1,2.3,4.2,3.5,6.2c2.2,2.7,4.7,5.3,7.4,7.6c-4-0.4-7.3-1.1-9.7-4.3
	c-1.8-2.3-3.2-4.9-4-7.6c-0.7-2.7-2.7-4.6-4.4-6.7C112.3,87.3,112.1,87,112.1,86.6L112.1,86.6z"/>
<path class="st7" d="M116.8,66.3c0.1-0.6,0.5-0.6,0.9-0.5c1.4,0,2.9-0.1,4.3-0.4c2.9-0.3,5.8-1.1,8.5-2.3c0.4-0.2,0.8-0.3,0.9-0.9
	c3-0.3,5.5-1.7,5.5-4.3c1.2,1.8,1,4.2-0.6,5.7c-3,3.1-6.9,4.6-11.1,5.5c-2.5,0.5-5.2-0.1-7.3-1.7l0,0c-0.1,1.6,1.4,1.8,2.3,2.4
	c1.2,0.7,1.3,1.5,0.2,2.4c-1,0.9-2.2,1.4-3.5,1.4c0.9-1.9,0.9-4.1,0-6C116.8,67.2,116.7,66.8,116.8,66.3z"/>
<path class="st7" d="M112.1,86.6L112.1,86.6L112.1,86.6z"/>
<path class="st11" d="M242.9,113.4c-0.1,0-0.1,0-0.2,0c0,0.2-0.4,0.4,0,0.6C243,113.9,243,113.6,242.9,113.4z"/>
<path class="st11" d="M242.7,114"/>
<path class="st12" d="M682.1,43.9v-0.3c-1-0.1-2.4,0.5-2-1.4c-0.1-0.1-0.2-0.2-0.4-0.2c-1.2,0-0.9-0.6-0.6-1.4s0.3-1.6-1.2-1.6
	c-0.8,0-1.5-0.1-2.3-0.3c-0.4-0.2-0.9-0.1-1.2,0.2l-3.3,0.9c-0.1,0-0.2,0-0.3,0.1l0,0l-0.8,0.2h-4.8l-0.7-0.2
	c-0.4-0.6-0.7-0.6-0.9-0.3l-0.7-0.2c0-0.3,0.2-0.5,0.4-0.6c-0.8,0.3-2-0.3-2.8,0l-0.9-0.3v1.7v0.2l-0.5,0.1v-1.9h-3.2
	c-0.4-1.8,0.7-2.9,2.5-2.5c0.3,0,0.6,0.7,0.8-0.2c0.1-0.6-0.2-0.7-0.8-0.7c-2.9,0-5.9,0-8.8,0c-1,0-1.1,0.5-0.8,1.3
	c0.5-0.1,0.5-0.9,1.4-0.7c1.2,0.3,2.4,0.4,3.6,0.2c0.8-0.2,1.4-0.1,1.4,0.7c0,0.6,0.1,1.2,0.1,1.8H654V46h-1.6v-6.3l-0.6-0.9h-3.4
	v1.3c-0.3,0.3-0.7,0.5-1.2,0.7c-0.4,0.1-0.6-0.3-0.5-0.8c-0.7,0-0.5-0.8-1-1l-0.3-0.2c0.3-0.4,0.3-1.1-0.1-1.4
	c-0.1-0.1-0.2-0.1-0.3-0.2c-0.8-0.4-0.9,0.2-1.2,0.6s-0.3,1-1.2,0.3c-1-0.8-2.1-1.4-3.2-1.9c-0.7-0.3-0.7-0.8-0.3-1
	c1.1-0.6,0.2-1-0.1-1.5c-0.6-0.8-1.6-1-2.3-1.6c1.1-1.3,2.5-0.8,3.9-0.9c1.3-0.1,2.7-0.1,4,0c1.6,0.1,1-1.1,1-1.8s-0.3-1.5-1.3-1.2
	c-2.5,0.6-5.2-0.2-7.8,0.5c-1.5,0.4-3.6,0.7-5.2-0.5c-0.2-0.2-0.4-0.2-0.6,0c-1,0.9-2.2,0.4-3.3,0.6c-1.2,0.1-2.4,0.1-3.5,0
	c-3.7,0-7.4,0.1-11,0c-0.6-0.1-1.2,0-1.6,0.4c-0.3,0.2-0.4,0.7-0.2,1c0.4,0.5,1,0.8,1.7,0.9c2.8-0.2,5.5,0,8.2,0.6
	c2.4,0.6,4.8,1.2,7.2,1.8c0.5,0.1,1,0.2,1.3-0.4c0.5-1,1.3-0.5,2-0.4c1.1,0.2,1.5,1.2,2.2,1.8c2.4,2,6.4,2.2,7,6.2h-2.9
	c-0.4,0-0.9,0-0.7-0.5c0.3-1.4-0.6-1.3-1.6-1.5c-1.3-0.2-2.6-0.1-3.9,0.3c-0.7,0.2-1.4-0.1-1.8-0.7c-0.3-0.5-0.7-1.1,0.2-1.6
	c0.2-0.1,0.1-0.7,0.1-1.1c-0.5-0.1-0.9-0.1-1.4-0.1s-0.3,0.3-0.3,0.7c0.1,0.4-0.2,0.8-0.6,0.9c-0.7,0.2-0.4-0.5-0.5-0.7
	c-0.3-0.5-0.9-0.7-1.4-0.7c-1,0.1-1.9,0-2.9-0.1c-1.2,0-2.4,0.1-3.6,0.3c0.4,0.9,1.5,0,1.8,1h-2.8c-0.2-0.5,1.1-1,0.1-1.5
	c-1.2-0.5-1.2,0.6-1.4,1.2c-0.7-0.1-0.6-1.1-1.2-0.8s0.5,0.7,0.2,1.1h-7.2c-0.8,0-1.4,0-1.4-1.1c0-0.9-0.7,0-0.9-0.3
	c-0.3,0.8-1.5,1.2-1.1,2.4l2,1.1c1-0.1,2-0.1,3,0c4,0.1,8.1,0.7,12,1.7c1.4,0.3,3.3,2.6,4.8-0.1c0,0,0.1,0,0.2,0
	c1.2,0.3,2.6,0.3,3.5,1c0.6,0.5,1.4,0.8,2.3,0.7c1.1,0,2.3,0,3.4,0c1.6-0.1,3.1-0.1,4.2,1.3c0.2,0.2,0.5,0.3,0.7,0.2
	c2.1-1,4.2-0.4,6.3,0c-0.2,0.1-0.4,0.2-0.5,0.3h-2.2v1.1H643l0.2,3.5c0,0.1,0,0.2,0,0.4l0,0c0.1,0.5,0.4,0.8,1.5,0.4
	c0.1,0,0.3,0.4,0.5,0.6c1.6,2.2,4.4,2.2,5.9,0c0.2-0.3,0.5-0.6,0.8-0.8h2.9c2.2,0.2,4.3,0.1,6.5,0.1c0.3,0,0.7,0.2,0.9-0.1h0.8
	c0.3,1.4,1.6,2.4,3.1,2.4c1.8,0.1,3-0.9,3.7-2.7c0.2,1.3,1.4,1.3,1.7,0.9c0.7-0.7,1.4-0.5,2.1-0.5c2.3,0,4.5-1,6.7-1.5
	c0.4-0.1,0.6-0.4,0.6-0.8c0-0.1,0-0.1-0.1-0.2C680,44.6,680,44.6,682.1,43.9z M624.8,29.5c1.3-0.4,2.7-0.3,4,0.1
	C627.5,29.9,626.2,29.9,624.8,29.5L624.8,29.5z"/>
<path class="st13" d="M278,90.6h-18.4V78.3c0-3.6-0.2-5.8-0.6-6.7c-0.5-0.9-1.5-1.5-2.6-1.3c-1.5,0-2.5,0.5-2.9,1.6s-0.6,3.4-0.6,7
	v32.9c0,3.4,0.2,5.7,0.6,6.7c0.9,1.5,2.8,2,4.3,1.2c0.5-0.3,0.9-0.7,1.2-1.2c0.4-1.1,0.6-3.5,0.6-7.4v-8.9H278v2.8
	c0,7.3-0.5,12.5-1.5,15.6s-3.3,5.8-6.9,8.1c-3.9,2.4-8.5,3.6-13.1,3.5c-5.4,0-9.8-1-13.3-2.9c-3.3-1.7-5.8-4.6-7-8.1
	c-1.1-3.5-1.7-8.7-1.7-15.6V84.8c-0.1-3.8,0.1-7.7,0.5-11.5c0.4-2.7,1.5-5.2,3.2-7.4c1.9-2.5,4.4-4.4,7.2-5.6c3.4-1.4,7-2.1,10.6-2
	c5.4,0,9.9,1.1,13.4,3.2c3.2,1.7,5.7,4.5,7,7.8c1.1,3.1,1.7,8,1.7,14.6L278,90.6z"/>
<path class="st13" d="M326.7,101.3c0,7.1-0.2,12.2-0.5,15.1c-0.7,6.1-4.6,11.4-10.3,13.8c-3.3,1.4-6.9,2.1-10.5,2
	c-3.5,0.1-7-0.6-10.2-1.9c-5.7-2.3-9.8-7.5-10.6-13.7c-0.4-5.1-0.6-10.2-0.5-15.3V89.2c0-7.1,0.2-12.2,0.5-15.1
	c0.7-6.1,4.6-11.4,10.3-13.8c3.3-1.4,6.9-2.1,10.5-2c3.5-0.1,7,0.6,10.2,1.9c5.7,2.3,9.8,7.5,10.6,13.7c0.4,5.1,0.6,10.2,0.5,15.3
	V101.3z M308.3,78c0-3.3-0.2-5.4-0.5-6.3c-0.4-0.9-1.3-1.5-2.3-1.4c-0.9,0-1.7,0.4-2.2,1.1c-0.5,0.8-0.8,2.9-0.8,6.6v33.1
	c0,4.1,0.2,6.7,0.5,7.6c0.3,1,1.3,1.6,2.3,1.4c1.1,0.1,2.1-0.6,2.4-1.7c0.4-1.1,0.5-3.7,0.5-7.9L308.3,78z"/>
<path class="st13" d="M390.4,59.8v70.8h-16.1V82.8l-6.4,47.8h-11.5l-6.8-46.7v46.7h-16.1V59.8h23.8c0.7,4.3,1.4,9.3,2.2,15.1l2.6,18
	l4.2-33.1L390.4,59.8z"/>
<path class="st13" d="M436.8,81.2h-17.1V76c0-2.4-0.2-4-0.7-4.7s-1.3-1.1-2.2-1c-1,0-2,0.5-2.5,1.4c-0.7,1.3-1,2.7-0.9,4.1
	c-0.1,1.8,0.2,3.7,1,5.3c0.6,1.2,2.3,2.6,5.2,4.3c8.2,4.9,13.4,8.9,15.5,12s3.2,8.2,3.2,15.1c0,5-0.6,8.8-1.8,11.2
	c-1.2,2.4-3.5,4.4-6.9,6c-3.7,1.7-7.7,2.5-11.8,2.4c-4.4,0.1-8.7-0.8-12.6-2.8c-3.5-1.9-5.8-4.3-6.9-7.1c-1.1-2.9-1.6-7-1.6-12.3
	v-4.6H414v8.6c0,2.7,0.2,4.4,0.7,5.1c0.6,0.8,1.6,1.2,2.6,1.1c1.1,0.1,2.2-0.5,2.7-1.4c0.7-1.3,1-2.8,0.9-4.3c0-4.2-0.6-6.9-1.7-8.2
	c-1.1-1.3-4-3.4-8.6-6.4c-3.2-2-6.2-4.2-9.1-6.6c-1.6-1.6-2.9-3.5-3.7-5.7c-1.1-3-1.6-6.1-1.5-9.3c0-5.4,0.7-9.4,2.1-11.9
	c1.5-2.7,3.9-4.7,6.7-5.9c3.5-1.5,7.4-2.2,11.2-2.1c4.2-0.1,8.4,0.7,12.2,2.3c3.4,1.5,5.6,3.5,6.7,5.8c1.1,2.4,1.6,6.4,1.6,12
	L436.8,81.2z"/>
<path class="st13" d="M444.1,59.8h30.7V74h-12.3v13.4H474v13.5h-11.5v15.6H476v14.2h-32L444.1,59.8L444.1,59.8z"/>
<path class="st13" d="M481.4,59.8h13c8.7,0,14.6,0.3,17.7,1s5.8,2.5,7.5,5.2c1.9,2.8,2.9,7.2,2.9,13.2c0,5.5-0.7,9.2-2.1,11.1
	c-1.4,1.9-4.1,3-8.1,3.4c3.6,0.9,6.1,2.1,7.3,3.6c1.1,1.2,1.9,2.6,2.3,4.2c0.3,1.3,0.5,4.8,0.5,10.5v18.7h-17.1v-23.5
	c0-3.8-0.3-6.1-0.9-7s-2.2-1.3-4.7-1.3v31.9h-18.4L481.4,59.8L481.4,59.8z M499.8,71.9v15.8c1.5,0.1,3-0.2,4.4-0.8
	c0.8-0.6,1.2-2.4,1.3-5.5v-3.9c0-2.3-0.4-3.7-1.2-4.4S501.9,71.9,499.8,71.9z"/>
<path class="st13" d="M563.9,59.8v56.7h11.3v14.2h-29.7V59.8H563.9z"/>
<path class="st13" d="M636.4,59.8v70.8h-16.1V82.8l-6.4,47.8h-11.5l-6.8-46.7v46.7h-16.1V59.8h23.8c0.7,4.3,1.4,9.3,2.2,15.1l2.6,18
	l4.2-33.1L636.4,59.8z"/>
<path class="st13" d="M686,85.9h-18.4v-6.4c0-4.1-0.2-6.6-0.5-7.6c-0.7-1.4-2.3-1.9-3.7-1.2c-0.5,0.2-0.9,0.6-1.1,1
	c-0.4,0.9-0.6,3.1-0.6,6.7v34c0,3.2,0.2,5.3,0.6,6.3c0.4,1,1.4,1.6,2.5,1.5c1.2,0.1,2.3-0.6,2.7-1.7c0.5-1.1,0.7-3.3,0.7-6.7v-8.4
	h-3.7V92.6H686v38h-11.6l-1.7-5.1c-1.1,2-2.8,3.7-4.8,4.9c-2.1,1.1-4.4,1.7-6.8,1.6c-3,0-6-0.8-8.7-2.3c-2.5-1.3-4.6-3.2-6.2-5.6
	c-1.4-2.1-2.3-4.5-2.6-7c-0.4-3.7-0.6-7.3-0.5-11v-21c0-6.8,0.4-11.7,1.1-14.8s2.8-5.9,6.3-8.4s7.9-3.8,13.4-3.8s10,1.1,13.4,3.3
	c3.6,2.2,5.9,4.9,7,7.9s1.6,7.5,1.6,13.3L686,85.9z"/>
<path class="st12" d="M322,169v-16.5h11.9v1.9h-9.7v5h9.1v1.9h-9.1v5.6h10.1v2H322V169z"/>
<path class="st12" d="M335.6,169l6.4-8.6l-5.6-7.9h2.6l3,4.2c0.6,0.9,1.1,1.6,1.3,2c0.4-0.6,0.8-1.3,1.3-1.9l3.3-4.4h2.4l-5.8,7.8
	l6.2,8.7H348l-4.1-5.9c-0.2-0.3-0.5-0.7-0.7-1.1c-0.4,0.6-0.6,1-0.8,1.2l-4.1,5.8L335.6,169L335.6,169z"/>
<path class="st12" d="M352.7,169v-16.5h6.2c0.8,0,1.7,0,2.5,0.1c0.7,0.1,1.4,0.4,2,0.8c0.6,0.4,1,1,1.3,1.6c0.3,0.7,0.5,1.5,0.5,2.3
	c0,1.3-0.4,2.6-1.3,3.6s-2.5,1.5-4.8,1.5h-4.2v6.7h-2.2V169z M354.8,160.4h4.3c1.1,0.1,2.1-0.2,3-0.8c0.6-0.6,0.9-1.4,0.9-2.2
	c0-0.6-0.2-1.2-0.5-1.8c-0.3-0.5-0.8-0.8-1.4-1c-0.7-0.1-1.3-0.2-2-0.1h-4.2L354.8,160.4z"/>
<path class="st12" d="M368,169v-16.5h12v1.9h-9.7v5h9.1v1.9h-9.1v5.6h10.1v2H368V169z"/>
<path class="st12" d="M383.4,169v-16.5h7.3c1.1,0,2.3,0.1,3.4,0.4c0.8,0.3,1.4,0.9,1.8,1.6c0.5,0.7,0.7,1.6,0.7,2.5
	c0,1.1-0.4,2.2-1.1,3c-1,0.9-2.2,1.4-3.5,1.5c0.5,0.2,0.9,0.5,1.3,0.8c0.7,0.6,1.3,1.4,1.8,2.2l2.9,4.5h-2.8l-2.2-3.4
	c-0.6-1-1.2-1.8-1.6-2.3c-0.3-0.4-0.7-0.8-1.1-1.1c-0.3-0.2-0.6-0.4-1-0.4c-0.4-0.1-0.8-0.1-1.2-0.1h-2.5v7.3H383.4z M385.6,159.8
	h4.7c0.8,0,1.6-0.1,2.3-0.3c0.5-0.2,1-0.5,1.3-1c0.3-0.4,0.4-1,0.4-1.5c0-0.7-0.3-1.4-0.9-1.9c-0.8-0.6-1.7-0.8-2.7-0.8h-5.2v5.5
	H385.6z"/>
<path class="st12" d="M400.3,169v-16.5h2.2V169H400.3z"/>
<path class="st12" d="M406.4,169v-16.5h11.9v1.9h-9.7v5h9.1v1.9h-9.1v5.6h10.1v2h-12.3V169z"/>
<path class="st12" d="M421.7,169v-16.5h2.2l8.6,12.9v-12.9h2.1V169h-2.2l-8.6-12.9V169H421.7z"/>
<path class="st12" d="M450,163.2l2.2,0.6c-0.3,1.6-1.2,3-2.5,4.1c-1.2,1-2.8,1.5-4.4,1.4c-1.5,0.1-3-0.3-4.3-1.1
	c-1.1-0.8-2-1.9-2.5-3.1c-0.6-1.4-0.9-2.9-0.9-4.4c0-1.6,0.3-3.1,1-4.5c0.6-1.2,1.6-2.2,2.8-2.9c1.2-0.7,2.6-1,4-1
	c1.5,0,2.9,0.4,4.2,1.3c1.2,0.9,2,2.1,2.3,3.5l-2.1,0.5c-0.3-1-0.8-1.9-1.7-2.6c-0.8-0.6-1.8-0.9-2.7-0.8c-1.1,0-2.2,0.3-3.2,0.9
	c-0.8,0.6-1.5,1.5-1.8,2.4c-0.7,2.2-0.7,4.6,0.1,6.8c0.3,1,1,1.8,1.9,2.3c0.8,0.5,1.8,0.8,2.8,0.8c1.1,0,2.2-0.3,3.1-1.1
	C449.3,165.5,449.9,164.4,450,163.2z"/>
<path class="st12" d="M455.3,169v-16.5h2.2V169H455.3z"/>
<path class="st12" d="M459.5,169l6.3-16.5h2.4l6.7,16.5h-2.5l-1.9-5h-6.9l-1.8,5H459.5z M464.2,162.2h5.6l-1.7-4.6
	c-0.5-1.4-0.9-2.5-1.2-3.4c-0.2,1.1-0.5,2.1-0.9,3.1L464.2,162.2z"/>
<path class="st12" d="M486,169v-7l-6.3-9.5h2.6l3.2,5c0.6,0.9,1.2,1.9,1.7,2.8c0.5-0.9,1.1-1.8,1.8-2.9l3.2-4.8h2.5l-6.6,9.5v7H486
	V169z"/>
<path class="st12" d="M514.4,163.2l2.2,0.6c-0.3,1.6-1.2,3-2.5,4.1c-1.2,1-2.8,1.5-4.3,1.4c-1.5,0.1-3-0.3-4.3-1.1
	c-1.1-0.8-2-1.9-2.5-3.1c-0.6-1.4-0.9-2.9-0.9-4.4c0-1.6,0.3-3.1,1-4.5c0.6-1.2,1.6-2.2,2.8-2.9c1.2-0.7,2.6-1,4-1
	c1.5,0,2.9,0.4,4.2,1.3c1.2,0.9,2,2.1,2.3,3.5l-2.1,0.5c-0.3-1-0.9-1.9-1.7-2.6c-0.8-0.6-1.8-0.9-2.7-0.8c-1.1,0-2.2,0.3-3.2,0.9
	c-0.8,0.6-1.5,1.5-1.8,2.4c-0.7,2.2-0.7,4.6,0.1,6.8c0.3,1,1,1.8,1.9,2.3c0.8,0.5,1.8,0.8,2.8,0.8c1.1,0,2.2-0.3,3.1-1.1
	C513.6,165.5,514.2,164.4,514.4,163.2z"/>
<path class="st12" d="M517.5,169l6.3-16.5h2.3l6.8,16.5h-2.5l-1.9-5h-6.9l-1.8,5H517.5z M522.2,162.2h5.6l-1.7-4.6
	c-0.5-1.4-0.9-2.5-1.2-3.4c-0.2,1.1-0.5,2.1-0.9,3.1L522.2,162.2z"/>
<path class="st12" d="M534.5,169v-16.5h2.2V167h8.1v1.9h-10.3V169z"/>
<path class="st12" d="M547.8,169v-16.5h2.2V169H547.8z"/>
<path class="st12" d="M553.8,169v-16.5h5.7c1,0,2,0.1,2.9,0.2c0.9,0.2,1.7,0.6,2.4,1.2c0.9,0.8,1.6,1.7,2,2.8
	c0.5,1.3,0.7,2.6,0.7,3.9c0,1.1-0.1,2.2-0.4,3.3c-0.2,0.9-0.6,1.7-1.1,2.4c-0.8,1.2-2.1,2-3.5,2.3c-0.9,0.2-1.8,0.3-2.6,0.3h-6.1
	V169z M556,167.1h3.5c0.9,0,1.7-0.1,2.6-0.3c0.6-0.2,1.1-0.5,1.5-0.9c0.6-0.6,1-1.3,1.2-2.1c0.3-1,0.5-2.1,0.4-3.2
	c0.1-1.4-0.2-2.8-0.8-4c-0.5-0.8-1.2-1.5-2.1-1.9c-0.9-0.3-1.9-0.4-2.8-0.3H556V167.1z"/>
<path class="st12" d="M568.6,169l6.3-16.5h2.3L584,169h-2.5l-1.9-5h-6.9l-1.8,5H568.6z M573.3,162.2h5.6l-1.7-4.6
	c-0.5-1.4-0.9-2.5-1.2-3.4c-0.2,1.1-0.5,2.1-0.9,3.1L573.3,162.2z"/>
<path class="st12" d="M585.7,169v-16.5h5.7c1,0,2,0.1,2.9,0.2c0.9,0.2,1.7,0.6,2.4,1.2c0.9,0.7,1.6,1.7,2,2.8
	c0.5,1.3,0.7,2.6,0.7,3.9c0,1.1-0.1,2.2-0.4,3.3c-0.2,0.9-0.6,1.7-1.1,2.4c-0.8,1.2-2.1,2-3.5,2.3c-0.9,0.2-1.8,0.3-2.6,0.3h-6.1
	V169z M587.9,167.1h3.5c0.9,0,1.7-0.1,2.6-0.3c0.6-0.2,1.1-0.5,1.5-0.9c0.6-0.6,1-1.3,1.2-2.1c0.3-1,0.5-2.1,0.4-3.2
	c0.1-1.4-0.2-2.8-0.8-4c-0.5-0.8-1.2-1.5-2.1-1.9c-0.9-0.3-1.9-0.4-2.8-0.3h-3.5L587.9,167.1L587.9,167.1z"/>
<line class="st14" x1="241.3" y1="160.9" x2="313.3" y2="160.9"/>
<line class="st14" x1="607.5" y1="160.9" x2="679.5" y2="160.9"/>
</svg>
