<svg id="Capa_1" data-name="Capa 1" xmlns="http://www.w3.org/2000/svg" viewBox="0 0 562.62 422.75"><defs><style>.cls-1{fill:#313131;}.cls-2{fill:#f3ae81;}.cls-3{fill:#676666;}.cls-4{fill:#aa1819;}.cls-5{fill:#9b9b9b;}.cls-6{fill:#df2413;}.cls-7{fill:#434343;}.cls-8{fill:#f1a170;}.cls-9{fill:#686767;}.cls-10{fill:#f4b5a3;}.cls-11{fill:#f5c2b3;}.cls-12{fill:#0b0806;}.cls-13{fill:#1f140f;}</style></defs><path class="cls-1" d="M140.12,303.27c-1.44,33.18,6.79,63.63,26.31,90.66,21.12,29.23,48.54,49.77,83.81,59a152.45,152.45,0,0,0,44,4.54A149.44,149.44,0,0,0,322.41,454c1.84-.42,2.9.2,3.91,1.75q18.56,28.51,37.22,57a7.17,7.17,0,0,1,1.35,3.91c0,2.08.33,4.15.37,6.23.28,12.93.46,25.86.86,38.78.07,2.13-1,2.65-2.5,3C354.84,566.39,346,568,337.27,570c-2,.47-2.38-.2-3.09-1.51-6.49-11.87-13.07-23.69-19.48-35.6-1.06-2-2.18-2.78-4.48-2.73q-11.85.22-23.7,0c-2.23-.05-3.27.7-4.12,2.69-5.44,12.8-11,25.55-16.53,38.32h-7.25c-3.37-1.39-7-.71-10.5-1.21a116,116,0,0,0-14.09-.75c-1.83,0-2.3-.62-2.48-2.46-.92-9.76-2.06-19.5-3.11-29.25-.49-4.55-1.09-9.09-1.36-13.66a2.53,2.53,0,0,0-2.08-2.72q-13-3.87-26-7.83a3.54,3.54,0,0,0-4,1.14c-9.65,9.59-19.43,19-29.07,28.63-1.59,1.58-2.57,1.9-4.59.52-7.43-5.1-15-10-22.62-14.84-1.69-1.09-2.22-1.94-1.6-4.15,3.77-13.38,7.23-26.84,10.88-40.24.35-1.3.46-2.07-.68-3.05q-9.07-7.83-18-15.86c-1.43-1.28-2.74-.8-4.2-.27-12.46,4.55-25,9-37.37,13.66-2.22.83-3.29.45-4.72-1.5-5.22-7.13-10.68-14.09-16.15-21-1.21-1.54-1.27-2.48,0-4.13,8.55-10.76,16.91-21.67,25.42-32.47a2.26,2.26,0,0,0,.24-2.88c-4.42-8.55-8.85-17.09-13.18-25.68-.77-1.54-1.79-1.74-3.32-1.74-13.29.06-26.57-.05-39.85.12-2.21,0-3.07-.77-3.55-2.57q-3.91-14.67-7.83-29.36c-.49-1.8-.19-2.87,1.71-3.82C38.22,348,49.73,342,61.32,336.09a4,4,0,0,0,2.56-4.27c-.14-8.45-.11-16.9,0-25.35,0-1.94-.55-2.75-2.52-3.39-12.51-4-24.93-8.34-37.41-12.45-2-.65-2.64-1.57-2.49-3.67.75-10.48,1.38-21,2-31.46.07-1.23.37-1.61,1.66-1.72,6.52-.56,13-1.31,19.54-1.91,8.16-.74,16.32-1.39,24.48-2.07,2.31-.2,3.54-1.28,4.24-3.63,2.33-7.73,4.86-15.41,7.46-23.06.62-1.82.22-2.89-1-4.25-9.57-10.27-19-20.67-28.59-30.91-1.47-1.58-1.2-2.55-.2-4.13,5.38-8.54,10.72-17.1,15.89-25.77,1.17-2,2.3-2.23,4.31-1.63,13.44,4,26.92,7.88,40.33,12a3.43,3.43,0,0,0,4.19-1.17c5.71-6.22,11.46-12.4,17.38-18.79l28.81,46.35c-.65.87-1.32,1.73-1.94,2.62-4.32,6.14-7.3,12.65-5.36,20.42,1.18,4.72,3.87,8.68,6.66,12.57-2.51,4.17-5.16,8.27-6.87,12.86a23.1,23.1,0,0,0-3.46.74c-10.82,4-19.07,10.54-22.16,22.23-.13.13-.4.36-.38.38.29.41.47.18.63-.13l17-2.12a125.13,125.13,0,0,0-5.4,28.95l-8.21.82C134.18,298,137.06,300.73,140.12,303.27Z" transform="translate(-21.42 -148.46)"/><path class="cls-2" d="M258.5,284.14c-.15.39-.54.89-.42,1.13,2.05,4.08,1.37,8.13-.08,12.17l2,.59c.4,2.7,3.8,2.44,4.65,4.7.07.73.32,1.5,1.06.56a14.2,14.2,0,0,0,1.92-3.37c2-4.83,6.93-5.54,10.31-1.45,1.11,1.34,2.16,2.73,3.3,4A15.12,15.12,0,0,0,292.9,308,9.09,9.09,0,0,0,296,314c1.87,1.85,3.9,3.78,4.56,6.31,2.06,7.84,3.5,15.78.74,23.81a21.88,21.88,0,0,0-1.58,7c2.83-2.78,4.67-5.31,5.67-8.45,3.2-4.57,3.52-9.89,3.91-15.19.09-1.09-.08-2.2,0-3.28s-.7-2.88.92-3c1.79-.15,4.08-1.32,5.48.77,4.77,7.12,11.32,8.22,19,5.85a4.49,4.49,0,0,1,1-.08,95.85,95.85,0,0,0-8.79,26.57c-1.19,6.62-5.43,10.48-11.49,12.65a12.81,12.81,0,0,0-3.53,1.66c3.37,2.11,3.66,5.06.76,7.88-.76.74-2,1-2,2.38h-1.36c-.19-.33-.38-.35-.6,0q-21.87,0-43.75.11c-1.43,0-2.34.14-1.9-2.06a31.83,31.83,0,0,0-.21-11.89c6,2.89,11.8,4.83,18.25,3.74a45,45,0,0,1-15.81-4.26,10.16,10.16,0,0,1-4.37-3.77Q246.26,338,231.41,315.44c-2.71-4.1-1.59-8.25-.73-12.31,2.46-11.54,7.37-22.29,11-33.45,2.78-8.57,7.41-12.68,16.67-12a75.69,75.69,0,0,1,17.39,3.57,7.78,7.78,0,0,1-.07,2.27c-1.93,5.87.45,8.24,5.91,10a16.69,16.69,0,0,0,5.42.81c-.06,1.08-.93,1.42-1.71,1.76a59.27,59.27,0,0,1-17.15,4.73c-2.9.33-5.78,1-8.74.72-.77-.07-1.59.16-1.76,1.09m-9.54,41-.28-.15.28.15a3.12,3.12,0,0,0,1,2c3.4,4.25,7.43,8.21,8.84,13.61,1.53,5.87,4.62,10.68,8.19,15.45,4.83,6.43,11.58,7.76,19.65,8.68-5.63-5.28-10.81-9.74-14.9-15.27-2.89-3.9-4.74-8.35-7.17-12.48C260.07,329.48,255.05,325.34,248.08,323.63Z" transform="translate(-21.42 -148.46)"/><path class="cls-3" d="M327.82,444c-23.35,0-46.7,0-70.05.15-2.25,0-2.42-.94-2.41-2.73q.07-21,0-42.08c0-1.43.84-3.49-2-3.41-.82,0-.63-1-.63-1.61,0-3.17.08-6.35-.05-9.53-.07-1.72.71-1.93,2.15-1.93q38.82.11,77.62.13c0,3.39-.06,6.79,0,10.18,0,1.48-.44,2.38-2.05,2.19-2.36-.29-2.64,1-2.63,3C327.81,413.56,327.8,428.78,327.82,444Z" transform="translate(-21.42 -148.46)"/><path class="cls-4" d="M256.09,252.73c.13,2.77-1.91,2.19-3.59,2.46-5.6.89-10.7,2.66-13.1,8.51a228.74,228.74,0,0,0-32-17.33c-6.7-2.89-14-4.41-20.22-8.43-8.5-5.45-16.93-10.93-22.1-20-3.05-5.34-2.6-10.61,1.08-15.33s8.26-6.85,14.39-5.63c8.27,1.64,15.26,5.82,22,10.46A78.54,78.54,0,0,1,218,221.94c6.23,7.35,13.75,13.47,21.34,19.39C244.67,245.47,249.83,249.93,256.09,252.73Z" transform="translate(-21.42 -148.46)"/><path class="cls-5" d="M140.12,303.27c-3.06-2.54-5.94-5.25-7.77-9.12l8.21-.82a37.29,37.29,0,0,1,4.5-.7c4.43-.42,9.1-.35,13.18-1.84,5.51-2,9-6.21,8.2-14.69a14.25,14.25,0,0,0-9.91-12.47c-3.64-1.05-7,.65-10.57.75l-17,2.12a3,3,0,0,0-.25-.25c3.09-11.69,11.34-18.26,22.16-22.23a23.1,23.1,0,0,1,3.46-.74c18.19-3.43,36.69,9.27,39,28.42,2.57,21.09-12,35.32-28.14,37.88C156.17,311,147.69,308.59,140.12,303.27Z" transform="translate(-21.42 -148.46)"/><path class="cls-5" d="M468.94,326.28c-4.16,12.2-12.16,19.84-24.09,23-18.67,4.86-38.51-8-41.09-27.24-2.52-18.76,7.88-34.19,26.29-38.13,13.1-2.81,24.95,1.28,33.45,12.52.49.65,1.35,1.38.83,2.27s-1.58.52-2.44.62c-7.46.88-15,1.26-22.36,2.83-6.18,1.32-10.47,7.92-8.64,16.16,1.63,7.29,7.21,13.13,17,10.88C454.65,327.6,461.64,327.23,468.94,326.28Z" transform="translate(-21.42 -148.46)"/><path class="cls-6" d="M256.09,252.73c-6.26-2.8-11.42-7.26-16.73-11.4-7.59-5.92-15.11-12-21.34-19.39a78.54,78.54,0,0,0-15.42-14.52c-6.79-4.64-13.78-8.82-22-10.46-6.13-1.22-10.82,1-14.39,5.63s-4.13,10-1.08,15.33c5.17,9.09,13.6,14.57,22.1,20,6.26,4,13.52,5.54,20.22,8.43a228.74,228.74,0,0,1,32,17.33c-.47,2-.94,3.94-1.46,6.14-6.77-3.33-13.19-6.87-20-9.64a143.92,143.92,0,0,0-19.58-6.7c-14.78-3.73-26.82-12.07-37.14-23.08-2.79-3.89-5.48-7.85-6.66-12.57-1.94-7.77,1-14.28,5.36-20.42.62-.89,1.29-1.75,1.94-2.62,5.43-5.23,11.46-9.1,19.47-8,9,1.24,16.92,5.12,24.44,10,9.22,6,16.32,13.92,22.8,22.72,7.17,9.73,16.31,17.66,25.7,25.23C258.41,248.06,258.49,248,256.09,252.73Z" transform="translate(-21.42 -148.46)"/><path class="cls-2" d="M281.1,296.65a18.82,18.82,0,0,1-.69-2.52c-.46-3.06,0-5.21,3.72-6.23a31,31,0,0,0,13.59-7.62c4.09-3.95,4.36-8.82,3.39-14a5,5,0,0,0-3.61-3.87c-4.32-1.55-8.79-3.36-13.29-3.1-7,.41-13.13-2.88-19.76-3.89-.43-.07-.85-.22-1.28-.27-4.53-.52-4.58-.6-2.58-4.65,3.77-7.65,14.79-12,22.78-9.06,5.71,2.11,7.61,7.85,7.3,14a15.64,15.64,0,0,1-.37,2.08C302,246,305.45,245.35,312,253.12c.19,7.35-.2,14.67-2.95,21.56s-5.76,13.41-8.77,20.06c-1.83,4-8,7.18-12.8,4.94C285.36,298.68,283.73,296.55,281.1,296.65Z" transform="translate(-21.42 -148.46)"/><path class="cls-5" d="M402.53,331.88c-8.28-6.6-18.46-7.16-28.26-8.88-8.34-1.47-16.71-2.75-25.06-4.14a6.41,6.41,0,0,1-1.52-.75l4.38-5c4.37.76,8.62,2.28,13.16,2a8.91,8.91,0,0,0,7.87-6.32,8.45,8.45,0,0,0-4.28-9.09,14.87,14.87,0,0,0-5.55-1.77c-2.36-.26-4.7-.79-7-1.21l-.89-3.91.28-.27c10.83,1.68,21.73,3,32.48,5.17a35.14,35.14,0,0,0,17.3-1.2l.46.5c-2.44,4.57-5,9-5.73,14.37-.8,6,.31,11.63,2.09,17.24.3.93.54,1.87.81,2.81Z" transform="translate(-21.42 -148.46)"/><path class="cls-5" d="M193.94,260.5c7.48,5.92,16.85,7.93,26,9.16,4.73.64,9.42,1.57,14.15,2.22,2.32.32,3.29,1.12,2,3.43-.41.73-.71,1.53-1.06,2.29a11.58,11.58,0,0,0-9.13-1.19c-6.86,1.6-8.39,8.69-5.12,12.66,2.31,2.81,5.26,3.67,8.42,4.51-.91,5.16-.87,4.88-6.07,4.07-7.47-1.17-14.78-3.49-22.52-3.08-3.44.18-6.43,1.88-9.8,2.06h0c4.18-6.39,6.71-13.49,6.16-21.36C196.58,270.27,193.82,260.59,193.94,260.5Z" transform="translate(-21.42 -148.46)"/><path class="cls-7" d="M327.82,444c0-15.23,0-30.45-.08-45.68,0-1.94.27-3.25,2.63-3,1.61.19,2.07-.71,2.05-2.19-.05-3.39,0-6.79,0-10.18,3.59,0,8.43-1.37,10.45.43,2.31,2.05.5,7,.7,10.65a4.25,4.25,0,0,1-.31,1.81c-3.54.07-2.09,2.77-2.11,4.32q-.15,20.52,0,41c0,2.23-.46,3.08-2.84,2.92C334.83,443.93,331.32,444,327.82,444Z" transform="translate(-21.42 -148.46)"/><path class="cls-8" d="M310.68,378.86c0-1.38,1.22-1.64,2-2.38,2.9-2.82,2.61-5.77-.76-7.88a12.81,12.81,0,0,1,3.53-1.66c6.06-2.17,10.3-6,11.49-12.65a95.85,95.85,0,0,1,8.79-26.57c2.25-2.05,4.18-1,6.39.34,6.11,3.81,6.07,3.68,3.08,10.16-3.1,6.71-6.08,13.43-7.06,20.92-.85,6.45-3,8.13-9.51,9.27-1.38.25-2.75.55-4.65.93a14.69,14.69,0,0,0,8.85-.52c1.93-.68,2.54.22,2.66,1.58a59.77,59.77,0,0,1,.07,7.21c-.05,1.71-1.46,1.32-2.48,1.32C325.6,378.93,318.14,378.89,310.68,378.86Z" transform="translate(-21.42 -148.46)"/><path class="cls-2" d="M302,307.14c4-9,9-17.61,12.18-27a63.58,63.58,0,0,1,3.32-8.47c1.68-3.31,3.6-6.84,8.08-6.55a11.53,11.53,0,0,1,10.12,7.07c-.22.5-.45,1-.65,1.5-4.52,11.59-9.39,23-16.71,33.18-3.45,4.79-8.17,5.65-13.09,2.48C304.2,308.61,303.12,307.87,302,307.14Z" transform="translate(-21.42 -148.46)"/><path class="cls-9" d="M428.5,374.9l2.7,2.72c.36,1.18,2.59,1.52,1.76,3.09a39.88,39.88,0,0,1-3.57,5.06c-.09.12-.61.06-.85-.07-3.56-2-7.85-2.53-10.53-6.13-5.4-7.25-12.69-12.49-20.47-16.59-16.12-8.51-30.14-20.1-45.5-29.7-.36-.23-1-.61-1-.76,1.23-4.61-3.24-4.23-5.26-5.88-1.66-1.36-3.15-2.27-1.61-4.71,1-1.55,1.59-1.44,3-.49,10.69,7.34,21.46,14.56,32.19,21.84,5.78,3.91,11.91,7.42,17.18,11.93,4.52,3.87,9.17,7.44,14,10.88,3.64,2.59,7.8,3.77,11.8,5.4A22.73,22.73,0,0,1,428.5,374.9Z" transform="translate(-21.42 -148.46)"/><path class="cls-2" d="M320.49,318.23c5.61-9.43,11-19,16.31-28.58,2.62-4.69,7.32-7.12,11.44-3-.23,1.5-.41,3-.71,4.5a53,53,0,0,1-13.69,26.66C329.49,322.37,323.73,322.32,320.49,318.23Z" transform="translate(-21.42 -148.46)"/><path class="cls-8" d="M320.49,318.23c3.24,4.09,9,4.14,13.35-.42a53,53,0,0,0,13.69-26.66c.3-1.49.48-3,.71-4.5,5.22,3,6.5,12.26,4.05,17-4,7.75-9.52,14.37-15.6,20.47-3.88,3.9-10.1,3.05-15.85-1C318.37,321.38,318.05,320.06,320.49,318.23Z" transform="translate(-21.42 -148.46)"/><path class="cls-8" d="M302,307.14c1.08.73,2.16,1.47,3.25,2.18,4.92,3.17,9.64,2.31,13.09-2.48,7.32-10.17,12.19-21.59,16.71-33.18.2-.5.43-1,.65-1.5,2.57,4.09,1.05,8.27,0,12.27-1.91,7.14-6.16,13.19-9.79,19.51-2,3.49-4.44,6.73-6.54,10.18a9.17,9.17,0,0,1-8.76,4.72,11.12,11.12,0,0,1-9.22-6A4.59,4.59,0,0,1,302,307.14Z" transform="translate(-21.42 -148.46)"/><path class="cls-3" d="M356.23,296.7c2.34.42,4.68.95,7,1.21a14.87,14.87,0,0,1,5.55,1.77,8.45,8.45,0,0,1,4.28,9.09,8.91,8.91,0,0,1-7.87,6.32c-4.54.28-8.79-1.24-13.16-2,.58-2.45,2-4.5,3.11-6.7A12.8,12.8,0,0,0,356.23,296.7Z" transform="translate(-21.42 -148.46)"/><path class="cls-8" d="M281.1,296.65c2.63-.1,4.26,2,6.38,3,4.75,2.24,11-.91,12.8-4.94,3-6.65,6.07-13.28,8.77-20.06s3.14-14.21,2.95-21.56c4.06,4.9,3.49,10.58,2.32,16.14-2.29,10.83-7.53,20.57-11.91,30.61-1.33,3.06-3.77,5-7.46,4.85-5-.22-9.84-.86-12.77-5.71A19.39,19.39,0,0,1,281.1,296.65Z" transform="translate(-21.42 -148.46)"/><path class="cls-3" d="M229.16,293.58c-3.16-.84-6.11-1.7-8.42-4.51-3.27-4-1.74-11.06,5.12-12.66A11.58,11.58,0,0,1,235,277.6Q232.07,285.6,229.16,293.58Z" transform="translate(-21.42 -148.46)"/><path class="cls-10" d="M298.08,265.53c0,5.31-4.95,8.11-11.1,8.78a16.69,16.69,0,0,1-5.42-.81c-5.46-1.77-7.84-4.14-5.91-10a7.78,7.78,0,0,0,.07-2.27l4,.55c-.94,2.58-1.22,5.84,1.87,6.18,5.44.6,11.35,1.91,16.16-2.5A.29.29,0,0,1,298.08,265.53Z" transform="translate(-21.42 -148.46)"/><path class="cls-8" d="M305.42,342.67c-1,3.14-2.84,5.67-5.67,8.45a21.88,21.88,0,0,1,1.58-7c2.76-8,1.32-16-.74-23.81-.66-2.53-2.69-4.46-4.56-6.31A9.09,9.09,0,0,1,292.9,308c2.23-.71,3.35.21,3.87,2.39a11.11,11.11,0,0,0,4.7,6.86c3.39,2.16,3.8,5.35,3.89,8.71C305.5,331.54,305.41,337.11,305.42,342.67Z" transform="translate(-21.42 -148.46)"/><path class="cls-11" d="M297.72,265.45c-4.81,4.41-10.72,3.1-16.16,2.5-3.09-.34-2.81-3.6-1.87-6.18C285.94,261.82,292.12,262.21,297.72,265.45Z" transform="translate(-21.42 -148.46)"/><path class="cls-8" d="M264.61,302.73c-.85-2.26-4.25-2-4.65-4.7,2.21.22,4.15-1,6.35-1.42C266.9,299.09,266,301,264.61,302.73Z" transform="translate(-21.42 -148.46)"/><path class="cls-5" d="M403,331.41c.39.26.66.74.31,1s-.57-.31-.81-.56Z" transform="translate(-21.42 -148.46)"/><path class="cls-5" d="M405.4,296.49c.26-.39.74-.65,1-.3s-.31.56-.55.8Z" transform="translate(-21.42 -148.46)"/><path class="cls-5" d="M190.77,296.63l-.19.48c-.57-.41,0-.35.19-.47Z" transform="translate(-21.42 -148.46)"/><path class="cls-5" d="M355.34,292.79c-.12-.13-.37-.35-.35-.39.27-.38.46-.15.63.12Z" transform="translate(-21.42 -148.46)"/><path class="cls-8" d="M308.72,378.84c.22-.33.41-.31.6,0l-.3,0Z" transform="translate(-21.42 -148.46)"/><path class="cls-5" d="M129,266.5c-.16.31-.34.54-.63.13,0,0,.25-.25.38-.38A3,3,0,0,1,129,266.5Z" transform="translate(-21.42 -148.46)"/><path class="cls-8" d="M248.08,323.63c7,1.71,12,5.85,15.6,12,2.43,4.13,4.28,8.58,7.17,12.48,4.09,5.53,9.27,10,14.9,15.27-8.07-.92-14.82-2.25-19.65-8.68-3.57-4.77-6.66-9.58-8.19-15.45-1.41-5.4-5.44-9.36-8.84-13.61a3.12,3.12,0,0,1-1-2Z" transform="translate(-21.42 -148.46)"/><path class="cls-8" d="M257.62,282.61c.23-1.26,1-1.16,1.76-1.09,3,.28,5.84-.39,8.74-.72a59.27,59.27,0,0,0,17.15-4.73c.78-.34,1.65-.68,1.71-1.76,6.15-.67,11.06-3.47,11.1-8.78,2.43,3.08,2,8.29-1.1,11.51-6.13,6.35-13.88,9.32-22.36,11.13-5.61,1.19-10.22-.36-14.66-3.4,0,0,0,0,0,0l0,0c-.12,3.25,2.84,3.67,4.76,4.88,2.34,1.48,2.6,3.05.45,4.86a11.86,11.86,0,0,1-7.14,2.89c1.45-4,2.09-8.06.08-12.17A5.69,5.69,0,0,1,257.62,282.61Z" transform="translate(-21.42 -148.46)"/><path class="cls-8" d="M248.08,323.63l-.28-.15.28.15Z" transform="translate(-21.42 -148.46)"/><path class="cls-12" d="M512.77,377.79a.7.7,0,0,0-.43,0c-.11.37-.73.77-.09,1.14C512.91,378.78,512.94,378.31,512.77,377.79Z" transform="translate(-21.42 -148.46)"/><path class="cls-12" d="M512.25,378.93h0v0h.11A.26.26,0,0,1,512.25,378.93Z" transform="translate(-21.42 -148.46)"/><path class="cls-12" d="M584,386.84v-.66c-1.92-.17-4.81,1-4.1-2.9a1.34,1.34,0,0,0-.78-.38c-2.42,0-1.82-1.28-1.28-2.77s.53-3.25-2.42-3.2a15.07,15.07,0,0,1-4.62-.67c-1.24-.38-2-.16-2.46.33l-6.66,1.74a1,1,0,0,0-.7.16l-.1.05-1.63.42h-9.62v0l-1.47-.4c-.74-1.26-1.35-1.16-1.9-.53l-1.35-.37a1.88,1.88,0,0,1,.85-1.27c-1.69.63-4.07-.57-5.75-.08l-1.9-.53v3.46l-.06.31-.91.13v-3.76h-6.52c-.72-3.54,1.42-5.81,5.11-5.08.53.1,1.3,1.37,1.54-.32.18-1.29-.49-1.43-1.52-1.42-5.92,0-11.84,0-17.76.05-1.95,0-2.14,1-1.5,2.7,1.1-.27,1.08-1.87,2.75-1.4a15.74,15.74,0,0,0,7.22.31c1.53-.3,2.9-.12,2.86,1.49,0,1.19.12,2.45.18,3.67H527.1v15.18h-3.22l0-12.74-1.27-1.78-6.91,0v2.59a5.67,5.67,0,0,1-2.33,1.35c-.79.21-1.2-.65-1.12-1.52-1.39.12-1-1.55-1.92-2l-.57-.46c.79-1.32.71-2.27-.81-3.16s-1.82.47-2.47,1.16-.67,2-2.36.6a28.52,28.52,0,0,0-6.54-3.92c-1.37-.62-1.46-1.58-.69-2,2.15-1.28.47-2-.19-3-1.14-1.71-3.3-1.95-4.59-3.3,2.14-2.54,5.13-1.63,7.83-1.81a58.62,58.62,0,0,1,8.06.09c3.21.22,2-2.17,2.08-3.59.07-1.6-.54-2.94-2.71-2.42-5.16,1.25-10.44-.47-15.78,1.07-3.1.9-7.22,1.49-10.51-1a1,1,0,0,0-1.25,0c-2,1.86-4.51.82-6.75,1.17s-4.78-.08-7.18-.07c-7.44,0-14.9.23-22.33-.08-1.38-.06-2.3-.11-3.28.73a1.64,1.64,0,0,0-.4,2.09,4.55,4.55,0,0,0,3.47,1.74A51.12,51.12,0,0,1,460,362.12c4.81,1.21,9.7,2.42,14.56,3.59.9.22,2,.37,2.6-.79,1-2.12,2.67-1.1,4.14-.81,2.13.41,3,2.42,4.51,3.64,4.9,4,12.88,4.4,14.09,12.5H494c-.75,0-1.75.1-1.49-1.07.63-2.89-1.28-2.61-3.14-2.94a15.6,15.6,0,0,0-7.85.54,3.34,3.34,0,0,1-3.68-1.32c-.69-1-1.36-2.24.35-3.27.38-.23.17-1.46.23-2.22a23.34,23.34,0,0,0-2.88-.19c-1.06.06-.58.67-.5,1.34a1.58,1.58,0,0,1-1.18,1.81c-1.32.31-.73-.93-1.09-1.35a3,3,0,0,0-2.91-1.35A24.93,24.93,0,0,1,464,370c-2.31-.3-4.74.4-7.26.69.82,1.88,3.1-.09,3.57,2.1h-5.72c-.38-1,2.2-2.11.16-3.06-2.36-1.09-2.44,1.2-2.79,2.51-1.35-.16-1.26-2.24-2.51-1.59s1,1.39.34,2.32c-4.86,0-9.68,0-14.51,0-1.55,0-2.88,0-2.75-2.17.1-1.83-1.32,0-1.78-.64-.54,1.69-3,2.44-2.26,4.77l4,2.23c2-.4,4,0,6.06,0,8.22,0,16.16,1.7,24.18,3.38,2.87.6,6.74,5.28,9.72-.27,0-.05.21-.06.31,0,2.4.57,5.33.5,7,1.91s2.83,1.32,4.54,1.37a65.73,65.73,0,0,0,6.88-.09c3.22-.24,6.25-.17,8.54,2.73a1.59,1.59,0,0,0,1.43.39c4.24-1.93,8.47-.88,12.76-.06a5.53,5.53,0,0,0-1.1.64h-4.54v2.38h-3.67l.35,7.15a4.17,4.17,0,0,0,0,.72h0c.15,1,.81,1.53,3.09.82.19-.06.67.73,1,1.15,3.27,4.42,8.83,4.51,11.9-.06a5.1,5.1,0,0,1,1.55-1.56h5.79c4.37.39,8.76.26,13.15.24.61,0,1.33.3,1.89-.24h1.66a6.34,6.34,0,0,0,6.23,4.87c3.75.19,6.06-1.79,7.5-5.42.4,2.63,2.81,2.61,3.5,1.89,1.38-1.41,2.79-1,4.17-1,4.73-.08,9-2.12,13.53-3a1.39,1.39,0,0,0,1.1-1.93C579.72,388.35,579.68,388.36,584,386.84ZM468.19,357.72a14.57,14.57,0,0,1,8,.15C473.51,358.33,470.86,358.73,468.19,357.72Z" transform="translate(-21.42 -148.46)"/><path class="cls-13" d="M413.22,428.69H400.69v-8.31a14.73,14.73,0,0,0-.4-4.52,1.72,1.72,0,0,0-1.77-.9,1.86,1.86,0,0,0-2,1.09,16.43,16.43,0,0,0-.42,4.73V443a15.3,15.3,0,0,0,.42,4.55,2.14,2.14,0,0,0,3.7,0,17.22,17.22,0,0,0,.43-5v-6h12.53v1.86q0,7.42-1.06,10.52a10.72,10.72,0,0,1-4.67,5.44,16.06,16.06,0,0,1-8.91,2.34,18.54,18.54,0,0,1-9.07-2,9.61,9.61,0,0,1-4.73-5.48q-1.15-3.5-1.16-10.52v-14A61.25,61.25,0,0,1,384,417a10.68,10.68,0,0,1,2.12-5,11.87,11.87,0,0,1,4.91-3.77,17.93,17.93,0,0,1,7.21-1.37,17.74,17.74,0,0,1,9.14,2.13,10.18,10.18,0,0,1,4.73,5.29q1.13,3.16,1.13,9.86Z" transform="translate(-21.42 -148.46)"/><path class="cls-13" d="M446.32,435.87q0,7.2-.34,10.2a11.25,11.25,0,0,1-2.14,5.47,11.44,11.44,0,0,1-4.86,3.81,17.73,17.73,0,0,1-7.14,1.33,18.43,18.43,0,0,1-6.95-1.25,11.48,11.48,0,0,1-4.95-3.77,11.25,11.25,0,0,1-2.23-5.46,99.29,99.29,0,0,1-.36-10.33v-8.18c0-4.81.12-8.21.34-10.2a11.3,11.3,0,0,1,2.15-5.48,11.53,11.53,0,0,1,4.86-3.81,17.73,17.73,0,0,1,7.14-1.33,18.15,18.15,0,0,1,6.94,1.26,11.48,11.48,0,0,1,7.19,9.22,100.34,100.34,0,0,1,.35,10.34ZM433.8,420.16a14.65,14.65,0,0,0-.37-4.27,1.48,1.48,0,0,0-1.53-.93,1.68,1.68,0,0,0-1.5.76c-.35.5-.53,2-.53,4.44v22.32a21.56,21.56,0,0,0,.35,5.14,1.48,1.48,0,0,0,1.59,1,1.54,1.54,0,0,0,1.64-1.12,24.2,24.2,0,0,0,.35-5.35Z" transform="translate(-21.42 -148.46)"/><path class="cls-13" d="M489.64,407.88v47.8H478.69l0-32.27-4.35,32.27h-7.77L462,424.14l0,31.54H451v-47.8h16.2q.72,4.31,1.49,10.16l1.77,12.16,2.88-22.32Z" transform="translate(-21.42 -148.46)"/><path class="cls-13" d="M521.2,422.34H509.57V418.8a6.86,6.86,0,0,0-.45-3.16,1.65,1.65,0,0,0-1.49-.68,1.91,1.91,0,0,0-1.71.92,5.32,5.32,0,0,0-.58,2.77,7.76,7.76,0,0,0,.66,3.61q.62,1.22,3.53,2.92,8.37,4.94,10.54,8.09t2.17,10.18q0,5.12-1.21,7.53a9.35,9.35,0,0,1-4.65,4.06,18.57,18.57,0,0,1-8,1.64,18.06,18.06,0,0,1-8.58-1.89,9.28,9.28,0,0,1-4.66-4.81,24.64,24.64,0,0,1-1.1-8.3v-3.13h11.63v5.82a7.55,7.55,0,0,0,.49,3.45,1.89,1.89,0,0,0,1.74.77,2,2,0,0,0,1.86-1,5.52,5.52,0,0,0,.61-2.9q0-4.22-1.16-5.52a37.54,37.54,0,0,0-5.86-4.34,58.73,58.73,0,0,1-6.19-4.46,10.3,10.3,0,0,1-2.51-3.84,16.83,16.83,0,0,1-1-6.25c0-3.67.47-6.34,1.42-8a9.51,9.51,0,0,1,4.56-4,18.41,18.41,0,0,1,7.62-1.43,19.85,19.85,0,0,1,8.31,1.57,8.63,8.63,0,0,1,4.55,3.94q1.13,2.37,1.12,8.07Z" transform="translate(-21.42 -148.46)"/><path class="cls-13" d="M526.16,407.88h20.89v9.56h-8.36v9.07h7.82v9.09h-7.82v10.51h9.19v9.57H526.16Z" transform="translate(-21.42 -148.46)"/><path class="cls-13" d="M551.48,407.88h8.86q8.86,0,12,.67a8.29,8.29,0,0,1,5.11,3.47q2,2.79,2,8.91c0,3.72-.46,6.22-1.4,7.49s-2.76,2.05-5.5,2.31c2.48.61,4.14,1.43,5,2.45a7.31,7.31,0,0,1,1.59,2.82,44.1,44.1,0,0,1,.31,7.07v12.61H567.81V439.79c0-2.56-.2-4.14-.61-4.75s-1.47-.92-3.2-.92v21.56H551.48ZM564,416.05v10.63a5.58,5.58,0,0,0,3-.57c.57-.39.85-1.63.85-3.74v-2.63c0-1.51-.27-2.51-.82-3A4.68,4.68,0,0,0,564,416.05Z" transform="translate(-21.42 -148.46)"/><path class="cls-13" d="M411.52,460.57V526.3h15.23v16.45H386.48V460.57Z" transform="translate(-21.42 -148.46)"/><path class="cls-13" d="M510.1,460.57v82.18H488.21l0-55.48-8.72,55.48H463.94l-9.2-54.21,0,54.21H432.82V460.57h32.41q1.44,7.41,3,17.47l3.56,20.9,5.76-38.37Z" transform="translate(-21.42 -148.46)"/><path class="cls-13" d="M577.63,490.82h-25v-7.46c0-4.7-.24-7.65-.72-8.83s-1.6-1.78-3.38-1.78a3.27,3.27,0,0,0-3.16,1.53c-.56,1-.83,3.62-.83,7.81v39.44c0,3.69.27,6.12.83,7.28a3.33,3.33,0,0,0,3.33,1.76,3.75,3.75,0,0,0,3.72-2c.66-1.32,1-3.9,1-7.72v-9.74H548.3V498.64h29.33v44.11H561.89l-2.32-5.89a16.37,16.37,0,0,1-6.46,5.71,20.76,20.76,0,0,1-9.2,1.9,27.27,27.27,0,0,1-11.82-2.61,21.65,21.65,0,0,1-8.36-6.47,18.61,18.61,0,0,1-3.57-8.1,82.33,82.33,0,0,1-.72-12.71V490.16q0-11.78,1.49-17.1t8.54-9.77q7-4.44,18.23-4.44,11,0,18.27,3.85t9.45,9.17q2.21,5.29,2.21,15.4Z" transform="translate(-21.42 -148.46)"/></svg>