<?xml version="1.0" encoding="utf-8"?>
<!-- Generator: Adobe Illustrator 24.0.2, SVG Export Plug-In . SVG Version: 6.00 Build 0)  -->
<svg version="1.1" id="Capa_1" xmlns="http://www.w3.org/2000/svg" xmlns:xlink="http://www.w3.org/1999/xlink" x="0px" y="0px"
	 viewBox="0 0 465.4 437.1" style="enable-background:new 0 0 465.4 437.1;" xml:space="preserve">
<style type="text/css">
	.st0{fill:#1D1D1B;}
</style>
<path class="st0" d="M125.7,161.7c-1.4,33.2,6.8,63.6,26.3,90.7c21.1,29.2,48.5,49.8,83.8,59c14.4,3.8,29.1,5,44,4.5
	c9.5-0.3,18.9-1.4,28.1-3.5c1.8-0.4,2.9,0.2,3.9,1.8c12.4,19,24.8,38,37.2,57c0.8,1.2,1.3,2.4,1.3,3.9c0,2.1,0.3,4.1,0.4,6.2
	c0.3,12.9,0.5,25.9,0.9,38.8c0.1,2.1-1,2.6-2.5,3c-8.8,1.8-17.6,3.4-26.4,5.5c-2,0.5-2.4-0.2-3.1-1.5c-6.5-11.9-13.1-23.7-19.5-35.6
	c-1.1-2-2.2-2.8-4.5-2.7c-7.9,0.2-15.8,0.2-23.7,0c-2.2,0-3.3,0.7-4.1,2.7c-5.4,12.8-11,25.5-16.5,38.3c-2.4,0-4.8,0-7.3,0
	c-3.4-1.4-7-0.7-10.5-1.2c-4.6-0.7-9.4-0.6-14.1-0.8c-1.8,0-2.3-0.6-2.5-2.5c-0.9-9.8-2.1-19.5-3.1-29.3c-0.5-4.5-1.1-9.1-1.4-13.7
	c-0.1-1.6-0.7-2.3-2.1-2.7c-8.7-2.6-17.4-5.2-26-7.8c-1.6-0.5-2.7-0.1-4,1.1c-9.6,9.6-19.4,19-29.1,28.6c-1.6,1.6-2.6,1.9-4.6,0.5
	c-7.4-5.1-15-10-22.6-14.8c-1.7-1.1-2.2-1.9-1.6-4.1c3.8-13.4,7.2-26.8,10.9-40.2c0.4-1.3,0.5-2.1-0.7-3c-6.1-5.2-12-10.5-18-15.9
	c-1.4-1.3-2.7-0.8-4.2-0.3c-12.5,4.5-24.9,9-37.4,13.6c-2.2,0.8-3.3,0.5-4.7-1.5c-5.2-7.1-10.7-14.1-16.2-21c-1.2-1.5-1.3-2.5,0-4.1
	c8.5-10.8,16.9-21.7,25.4-32.5c0.8-1.1,0.8-1.8,0.2-2.9c-4.4-8.5-8.8-17.1-13.2-25.7c-0.8-1.5-1.8-1.7-3.3-1.7
	c-13.3,0.1-26.6-0.1-39.8,0.1c-2.2,0-3.1-0.8-3.5-2.6c-2.6-9.8-5.2-19.6-7.8-29.4c-0.5-1.8-0.2-2.9,1.7-3.8
	c11.6-5.8,23.1-11.9,34.7-17.7c1.9-1,2.6-2.1,2.6-4.3c-0.1-8.4-0.1-16.9,0-25.4c0-1.9-0.5-2.8-2.5-3.4C34.4,157.4,22,153.1,9.5,149
	c-2-0.6-2.6-1.6-2.5-3.7c0.8-10.5,1.4-21,2-31.5c0.1-1.2,0.4-1.6,1.7-1.7c6.5-0.6,13-1.3,19.5-1.9c8.2-0.7,16.3-1.4,24.5-2.1
	c2.3-0.2,3.5-1.3,4.2-3.6c2.3-7.7,4.8-15.4,7.4-23.1c0.6-1.8,0.2-2.9-1-4.3c-9.6-10.3-19-20.7-28.6-30.9c-1.5-1.6-1.2-2.5-0.2-4.1
	c5.4-8.5,10.7-17.1,15.9-25.8c1.2-2,2.3-2.2,4.3-1.6c13.4,4,26.9,7.9,40.3,12c2,0.6,3,0.1,4.2-1.2c5.7-6.2,11.5-12.4,17.4-18.8
	c9.7,15.5,19.2,31,28.8,46.3c-0.6,0.9-1.3,1.7-1.9,2.6c-4.3,6.1-7.3,12.6-5.4,20.4c1.2,4.7,3.9,8.7,6.7,12.6
	c-2.5,4.2-5.2,8.3-6.9,12.9c-1.2,0.2-2.4,0.3-3.5,0.7c-10.8,4-19.1,10.5-22.2,22.2c-0.1,0.1-0.4,0.4-0.4,0.4
	c0.3,0.4,0.5,0.2,0.6-0.1c5.7-0.7,11.3-1.4,16.9-2.1c-2.9,9.4-4.8,19.1-5.4,29c-2.7,0.3-5.3,0.5-8.2,0.8
	C119.8,156.4,122.6,159.2,125.7,161.7z"/>
<path class="st0" d="M244.1,142.6c-0.1,0.4-0.6,0.9-0.4,1.1c2.1,4.1,1.4,8.1-0.1,12.2c0.6,0.2,1.3,0.4,1.9,0.6
	c0.4,2.7,3.8,2.4,4.7,4.7c0.1,0.7,0.3,1.5,1.1,0.6c0.8-1,1.4-2.2,1.9-3.4c2-4.8,6.9-5.5,10.3-1.4c1.1,1.3,2.2,2.7,3.3,4
	c3.1,3.5,7,5.5,11.7,5.5c0.1,2.4,1.5,4.3,3.1,5.9c1.9,1.9,3.9,3.8,4.6,6.3c2.1,7.9,3.5,15.8,0.7,23.8c-0.7,2-1.5,4-1.6,7
	c2.8-2.8,4.7-5.3,5.7-8.4c3.2-4.6,3.5-9.9,3.9-15.2c0.1-1.1-0.1-2.2,0-3.3c0.1-1.1-0.7-2.9,0.9-3c1.8-0.1,4.1-1.3,5.5,0.8
	c4.8,7.1,11.3,8.2,19,5.9c0.3-0.1,0.6-0.1,1-0.1c-4.3,8.4-7.1,17.3-8.8,26.6c-1.2,6.6-5.4,10.5-11.5,12.6c-1.2,0.4-2.5,0.9-3.5,1.7
	c3.4,2.1,3.7,5.1,0.8,7.9c-0.8,0.7-2,1-2,2.4c-0.5,0-0.9,0-1.4,0c-0.2-0.3-0.4-0.4-0.6,0c-14.6,0-29.2,0.1-43.8,0.1
	c-1.4,0-2.3,0.1-1.9-2.1c0.8-3.8,0.5-7.7-0.2-11.9c6,2.9,11.8,4.8,18.3,3.8c-5.5-0.5-10.8-1.9-15.8-4.3c-1.8-0.9-3.2-2-4.4-3.8
	c-9.8-15.1-19.6-30.3-29.5-45.3c-2.7-4.1-1.6-8.3-0.7-12.3c2.4-11.5,7.4-22.3,11-33.4c2.8-8.6,7.4-12.7,16.7-12
	c6,0.4,11.7,1.8,17.4,3.6c0,0.8,0.2,1.6-0.1,2.3c-1.9,5.9,0.4,8.3,5.9,10c1.8,0.6,3.6,0.8,5.4,0.8c-0.1,1.1-0.9,1.4-1.7,1.8
	c-5.5,2.4-11.2,4.1-17.1,4.7c-2.9,0.3-5.8,1-8.7,0.7c-0.8-0.1-1.6,0.2-1.8,1.1 M233.7,182.1c-0.1-0.1-0.2-0.1-0.3-0.1
	C233.5,182,233.6,182,233.7,182.1c0,0.8,0.5,1.4,1,2c3.4,4.3,7.4,8.2,8.8,13.6c1.5,5.9,4.6,10.7,8.2,15.4c4.8,6.4,11.6,7.8,19.6,8.7
	c-5.6-5.3-10.8-9.7-14.9-15.3c-2.9-3.9-4.7-8.3-7.2-12.5C245.6,187.9,240.6,183.8,233.7,182.1z"/>
<path class="st0" d="M313.4,302.4c-23.4,0-46.7,0-70.1,0.1c-2.3,0-2.4-0.9-2.4-2.7c0.1-14,0-28,0-42.1c0-1.4,0.8-3.5-2-3.4
	c-0.8,0-0.6-1-0.6-1.6c0-3.2,0.1-6.4-0.1-9.5c-0.1-1.7,0.7-1.9,2.1-1.9c25.9,0.1,51.7,0.1,77.6,0.1c0,3.4-0.1,6.8,0,10.2
	c0,1.5-0.4,2.4-2,2.2c-2.4-0.3-2.6,1-2.6,3C313.4,272,313.4,287.2,313.4,302.4z"/>
<path class="st0" d="M241.7,111.2c0.1,2.8-1.9,2.2-3.6,2.5c-5.6,0.9-10.7,2.7-13.1,8.5c-10.3-6.5-20.8-12.5-32-17.3
	c-6.7-2.9-14-4.4-20.2-8.4c-8.5-5.4-16.9-10.9-22.1-20c-3-5.3-2.6-10.6,1.1-15.3c3.6-4.6,8.3-6.8,14.4-5.6
	c8.3,1.6,15.3,5.8,22.1,10.5c5.9,4,10.8,9.1,15.4,14.5c6.2,7.3,13.8,13.5,21.3,19.4C230.2,103.9,235.4,108.4,241.7,111.2z"/>
<path class="st0" d="M125.7,161.7c-3.1-2.6-5.9-5.3-7.8-9.1c2.9-0.3,5.6-0.6,8.2-0.8c1.5-0.3,3-0.6,4.5-0.7
	c4.4-0.4,9.1-0.4,13.2-1.8c5.5-2,9-6.2,8.2-14.7c-0.5-5.8-4.5-10.9-9.9-12.5c-3.6-1.1-7,0.7-10.6,0.8c-5.7,0.7-11.3,1.4-16.9,2.1
	c-0.1-0.1-0.2-0.2-0.3-0.3c3.1-11.7,11.3-18.3,22.2-22.2c1.1-0.4,2.3-0.5,3.5-0.7c18.2-3.4,36.7,9.3,39,28.4
	c2.6,21.1-12,35.3-28.1,37.9C141.7,169.4,133.3,167,125.7,161.7z"/>
<path class="st0" d="M454.5,184.7c-4.2,12.2-12.2,19.9-24.1,22.9c-18.7,4.9-38.5-8-41.1-27.2c-2.5-18.8,7.9-34.2,26.3-38.1
	c13.1-2.8,25,1.3,33.5,12.5c0.5,0.6,1.4,1.4,0.8,2.3c-0.5,0.8-1.6,0.5-2.4,0.6c-7.5,0.9-15,1.3-22.4,2.8c-6.2,1.3-10.5,7.9-8.6,16.2
	c1.6,7.3,7.2,13.1,17,10.9C440.2,186,447.2,185.7,454.5,184.7z"/>
<path class="st0" d="M241.7,111.2c-6.3-2.8-11.4-7.3-16.7-11.4c-7.6-5.9-15.1-12-21.3-19.4c-4.6-5.5-9.5-10.5-15.4-14.5
	c-6.8-4.6-13.8-8.8-22.1-10.5c-6.1-1.2-10.8,1-14.4,5.6c-3.7,4.7-4.1,10-1.1,15.3c5.2,9.1,13.6,14.6,22.1,20
	c6.3,4,13.5,5.5,20.2,8.4c11.2,4.8,21.7,10.8,32,17.3c-0.5,2-0.9,3.9-1.4,6.1c-6.8-3.3-13.2-6.9-20-9.6c-6.4-2.6-12.8-5-19.6-6.7
	c-14.8-3.7-26.8-12.1-37.1-23.1c-2.8-3.9-5.5-7.8-6.7-12.6c-1.9-7.8,1.1-14.3,5.4-20.4c0.6-0.9,1.3-1.8,1.9-2.6
	c5.4-5.2,11.5-9.1,19.5-8c9,1.2,16.9,5.1,24.4,10c9.2,6,16.3,13.9,22.8,22.7c7.2,9.7,16.3,17.7,25.7,25.2
	C244,106.5,244.1,106.4,241.7,111.2z"/>
<path class="st0" d="M266.7,155.1c-0.2-0.8-0.6-1.7-0.7-2.5c-0.5-3.1,0-5.2,3.7-6.2c5.1-1.4,9.7-3.9,13.6-7.6
	c4.1-3.9,4.4-8.8,3.4-14c-0.4-2-1.7-3.2-3.6-3.9c-4.3-1.5-8.8-3.3-13.3-3.1c-7,0.4-13.1-2.9-19.8-3.9c-0.4-0.1-0.9-0.2-1.3-0.3
	c-4.5-0.5-4.6-0.6-2.6-4.7c3.8-7.7,14.8-12,22.8-9.1c5.7,2.1,7.6,7.8,7.3,14c0,0.6-0.2,1.3-0.4,2.1c11.7-11.5,15.1-12.2,21.7-4.4
	c0.2,7.3-0.2,14.7-3,21.6c-2.7,6.8-5.8,13.4-8.8,20.1c-1.8,4-8,7.2-12.8,4.9C270.9,157.1,269.3,155,266.7,155.1z"/>
<path class="st0" d="M388.1,190.3c-8.3-6.6-18.5-7.2-28.3-8.9c-8.3-1.5-16.7-2.7-25.1-4.1c-0.5-0.1-0.9-0.4-1.5-0.8
	c1.5-1.8,3-3.4,4.4-5c4.4,0.8,8.6,2.3,13.2,2c3.6-0.2,7.1-3,7.9-6.3c0.8-3.4-1-7.3-4.3-9.1c-1.7-0.9-3.5-1.6-5.5-1.8
	c-2.4-0.3-4.7-0.8-7-1.2c-0.3-1.3-0.6-2.6-0.9-3.9c0.1-0.1,0.2-0.2,0.3-0.3c10.8,1.7,21.7,3,32.5,5.2c6,1.2,11.6,0.5,17.3-1.2
	c0.2,0.2,0.3,0.3,0.5,0.5c-2.4,4.6-5,9-5.7,14.4c-0.8,6,0.3,11.6,2.1,17.2c0.3,0.9,0.5,1.9,0.8,2.8
	C388.4,190,388.3,190.1,388.1,190.3z"/>
<path class="st0" d="M179.5,118.9c7.5,5.9,16.9,7.9,26,9.2c4.7,0.6,9.4,1.6,14.1,2.2c2.3,0.3,3.3,1.1,2,3.4
	c-0.4,0.7-0.7,1.5-1.1,2.3c-2.9-1.9-6.1-1.9-9.1-1.2c-6.9,1.6-8.4,8.7-5.1,12.7c2.3,2.8,5.3,3.7,8.4,4.5c-0.9,5.2-0.9,4.9-6.1,4.1
	c-7.5-1.2-14.8-3.5-22.5-3.1c-3.4,0.2-6.4,1.9-9.8,2.1l0,0c4.2-6.4,6.7-13.5,6.2-21.4C182.2,128.7,179.4,119,179.5,118.9z"/>
<path class="st0" d="M313.4,302.4c0-15.2,0-30.5-0.1-45.7c0-1.9,0.3-3.3,2.6-3c1.6,0.2,2.1-0.7,2-2.2c0-3.4,0-6.8,0-10.2
	c3.6,0,8.4-1.4,10.5,0.4c2.3,2.1,0.5,7,0.7,10.6c0,0.6-0.2,1.8-0.3,1.8c-3.5,0.1-2.1,2.8-2.1,4.3c-0.1,13.7-0.1,27.4,0,41
	c0,2.2-0.5,3.1-2.8,2.9C320.4,302.4,316.9,302.5,313.4,302.4z"/>
<path class="st0" d="M296.3,237.3c0-1.4,1.2-1.6,2-2.4c2.9-2.8,2.6-5.8-0.8-7.9c1.1-0.8,2.3-1.2,3.5-1.7c6.1-2.2,10.3-6,11.5-12.6
	c1.7-9.3,4.5-18.1,8.8-26.6c2.3-2.1,4.2-1,6.4,0.3c6.1,3.8,6.1,3.7,3.1,10.2c-3.1,6.7-6.1,13.4-7.1,20.9c-0.9,6.4-3,8.1-9.5,9.3
	c-1.4,0.2-2.8,0.6-4.7,0.9c3.4,0.9,6.2,0.4,8.9-0.5c1.9-0.7,2.5,0.2,2.7,1.6c0.2,2.4,0.1,4.8,0.1,7.2c0,1.7-1.5,1.3-2.5,1.3
	C311.2,237.4,303.7,237.3,296.3,237.3z"/>
<path class="st0" d="M287.6,165.6c4-9,9-17.6,12.2-27c1-2.9,2-5.8,3.3-8.5c1.7-3.3,3.6-6.8,8.1-6.6c4.7,0.3,8.1,2.8,10.1,7.1
	c-0.2,0.5-0.5,1-0.6,1.5c-4.5,11.6-9.4,23-16.7,33.2c-3.5,4.8-8.2,5.6-13.1,2.5C289.8,167,288.7,166.3,287.6,165.6z"/>
<path class="st0" d="M414.1,233.3c0.9,0.9,1.8,1.8,2.7,2.7c0.4,1.2,2.6,1.5,1.8,3.1c-1,1.8-2.3,3.4-3.6,5.1
	c-0.1,0.1-0.6,0.1-0.9-0.1c-3.6-2-7.9-2.5-10.5-6.1c-5.4-7.3-12.7-12.5-20.5-16.6c-16.1-8.5-30.1-20.1-45.5-29.7
	c-0.4-0.2-1-0.6-1-0.8c1.2-4.6-3.2-4.2-5.3-5.9c-1.7-1.4-3.2-2.3-1.6-4.7c1-1.6,1.6-1.4,3-0.5c10.7,7.3,21.5,14.6,32.2,21.8
	c5.8,3.9,11.9,7.4,17.2,11.9c4.5,3.9,9.2,7.4,14,10.9c3.6,2.6,7.8,3.8,11.8,5.4C410.1,230.8,412.2,231.8,414.1,233.3z"/>
<path class="st0" d="M306.1,176.7c5.6-9.4,11-19,16.3-28.6c2.6-4.7,7.3-7.1,11.4-3c-0.2,1.5-0.4,3-0.7,4.5
	c-2.1,10.2-6.5,19.2-13.7,26.7C315.1,180.8,309.3,180.8,306.1,176.7z"/>
<path class="st0" d="M306.1,176.7c3.2,4.1,9,4.1,13.4-0.4c7.2-7.5,11.6-16.5,13.7-26.7c0.3-1.5,0.5-3,0.7-4.5c5.2,3,6.5,12.3,4,17
	c-4,7.8-9.5,14.4-15.6,20.5c-3.9,3.9-10.1,3.1-15.9-1C303.9,179.8,303.6,178.5,306.1,176.7z"/>
<path class="st0" d="M287.6,165.6c1.1,0.7,2.2,1.5,3.3,2.2c4.9,3.2,9.6,2.3,13.1-2.5c7.3-10.2,12.2-21.6,16.7-33.2
	c0.2-0.5,0.4-1,0.6-1.5c2.6,4.1,1,8.3,0,12.3c-1.9,7.1-6.2,13.2-9.8,19.5c-2,3.5-4.5,6.7-6.5,10.2c-2,3.3-5.2,5-8.8,4.7
	c-3.9-0.3-7.2-2.4-9.2-6C285.9,169.3,286,167.3,287.6,165.6z"/>
<path class="st0" d="M341.8,155.1c2.4,0.4,4.7,0.9,7,1.2c2,0.2,3.8,0.8,5.5,1.8c3.3,1.8,5.1,5.6,4.3,9.1c-0.8,3.3-4.3,6.1-7.9,6.3
	c-4.5,0.3-8.8-1.2-13.2-2c0.6-2.4,2-4.5,3.1-6.7C342.3,161.7,342.8,158.5,341.8,155.1z"/>
<path class="st0" d="M266.7,155.1c2.6-0.1,4.3,2,6.4,3c4.8,2.2,11-0.9,12.8-4.9c3-6.6,6.1-13.3,8.8-20.1c2.8-6.9,3.1-14.2,3-21.6
	c4.1,4.9,3.5,10.6,2.3,16.1c-2.3,10.8-7.5,20.6-11.9,30.6c-1.3,3.1-3.8,5-7.5,4.9c-5-0.2-9.8-0.9-12.8-5.7
	C267.3,156.7,267,155.9,266.7,155.1z"/>
<path class="st0" d="M214.7,152c-3.2-0.8-6.1-1.7-8.4-4.5c-3.3-4-1.7-11.1,5.1-12.7c3-0.7,6.3-0.7,9.1,1.2
	C218.6,141.4,216.7,146.7,214.7,152z"/>
<path class="st0" d="M283.7,124c0,5.3-5,8.1-11.1,8.8c-1.9,0-3.6-0.2-5.4-0.8c-5.5-1.8-7.8-4.1-5.9-10c0.2-0.7,0-1.5,0.1-2.3
	c1.3,0.2,2.6,0.4,4,0.6c-0.9,2.6-1.2,5.8,1.9,6.2c5.5,0.6,11.4,1.9,16.2-2.5C283.4,123.8,283.5,123.8,283.7,124z"/>
<path class="st0" d="M291,201.1c-1,3.1-2.8,5.7-5.7,8.4c0.1-3,0.9-5,1.6-7c2.8-8,1.3-16-0.7-23.8c-0.7-2.5-2.7-4.5-4.6-6.3
	c-1.7-1.7-3-3.5-3.1-5.9c2.2-0.7,3.3,0.2,3.9,2.4c0.7,2.9,2.3,5.3,4.7,6.9c3.4,2.2,3.8,5.4,3.9,8.7C291.1,190,291,195.5,291,201.1z"
	/>
<path class="st0" d="M283.3,123.9c-4.8,4.4-10.7,3.1-16.2,2.5c-3.1-0.3-2.8-3.6-1.9-6.2C271.5,120.3,277.7,120.6,283.3,123.9z"/>
<path class="st0" d="M250.2,161.1c-0.9-2.3-4.3-2-4.7-4.7c2.2,0.2,4.1-1,6.4-1.4C252.5,157.5,251.5,159.4,250.2,161.1z"/>
<path class="st0" d="M388.6,189.8c0.4,0.3,0.7,0.7,0.3,1c-0.5,0.4-0.6-0.3-0.8-0.6C388.3,190.1,388.4,190,388.6,189.8z"/>
<path class="st0" d="M391,154.9c0.3-0.4,0.7-0.6,1-0.3c0.4,0.5-0.3,0.6-0.5,0.8C391.3,155.3,391.1,155.1,391,154.9z"/>
<path class="st0" d="M176.4,155.1c-0.1,0.2-0.1,0.3-0.2,0.5C175.6,155.1,176.2,155.2,176.4,155.1L176.4,155.1z"/>
<path class="st0" d="M340.9,151.2c-0.1-0.1-0.4-0.4-0.4-0.4c0.3-0.4,0.5-0.1,0.6,0.1C341.1,151,341,151.1,340.9,151.2z"/>
<path class="st0" d="M294.3,237.3c0.2-0.3,0.4-0.3,0.6,0l-0.3,0L294.3,237.3z"/>
<path class="st0" d="M114.6,124.9c-0.2,0.3-0.3,0.5-0.6,0.1c0,0,0.3-0.3,0.4-0.4C114.4,124.8,114.5,124.8,114.6,124.9z"/>
<path class="st0" d="M233.7,182.1c7,1.7,12,5.9,15.6,12c2.4,4.1,4.3,8.6,7.2,12.5c4.1,5.5,9.3,10,14.9,15.3
	c-8.1-0.9-14.8-2.2-19.6-8.7c-3.6-4.8-6.7-9.6-8.2-15.4c-1.4-5.4-5.4-9.4-8.8-13.6C234.2,183.4,233.6,182.9,233.7,182.1L233.7,182.1
	z"/>
<path class="st0" d="M243.2,141c0.2-1.3,1-1.2,1.8-1.1c3,0.3,5.8-0.4,8.7-0.7c6-0.7,11.7-2.3,17.1-4.7c0.8-0.3,1.6-0.7,1.7-1.8
	c6.1-0.7,11.1-3.5,11.1-8.8c2.4,3.1,2,8.3-1.1,11.5c-6.1,6.4-13.9,9.3-22.4,11.1c-5.6,1.2-10.2-0.4-14.7-3.4c0,0,0,0,0,0
	c0,0,0,0,0,0c-0.1,3.3,2.8,3.7,4.8,4.9c2.3,1.5,2.6,3,0.4,4.9c-2.1,1.8-4.4,2.7-7.1,2.9c1.4-4.1,2.1-8.1,0.1-12.2
	C243.6,143.7,243,142.1,243.2,141z"/>
<path class="st0" d="M233.6,182.1c-0.1-0.1-0.2-0.1-0.3-0.1C233.5,182,233.6,182,233.6,182.1L233.6,182.1z"/>
<path class="st0" d="M498.3,236.2c0,0-0.4,0-0.4,0c-0.1,0.4-0.7,0.8-0.1,1.1C498.5,237.2,498.5,236.7,498.3,236.2z"/>
<path class="st0" d="M497.8,237.4C497.8,237.4,497.8,237.4,497.8,237.4C497.8,237.4,497.8,237.4,497.8,237.4
	C497.8,237.4,497.9,237.4,497.8,237.4C497.9,237.4,497.9,237.4,497.8,237.4z"/>
</svg>
